<svg id="Layer_1" data-name="Layer 1" xmlns="http://www.w3.org/2000/svg" width="408" height="108" viewBox="0 0 408 108"><defs><style>.cls-1{fill:#00ccbd;}</style></defs><title>Deliveroo</title><path id="Logo" class="cls-1" d="M156.27,31.9h-8.84V51.29a13.83,13.83,0,0,0-10.64-4.87c-8.84,0-15.78,7.31-15.78,17.95s6.85,17.95,15.78,17.95a14.12,14.12,0,0,0,10.91-5.05l.9,4.33h9.29l-1.53-7.13V31.9ZM138.59,73.12c-5.14,0-8.93-3.43-8.93-8.66s3.79-8.66,8.93-8.66,8.93,3.34,8.93,8.66S143.73,73.12,138.59,73.12ZM202.53,31.9h8.84V81.6h-8.84ZM179.35,46.42c-10,0-17.32,7.22-17.32,17.95,0,10.91,7.31,17.95,18.58,17.95a25.69,25.69,0,0,0,13.89-4l-3.43-7.58a22.22,22.22,0,0,1-10.37,2.71c-4.69,0-7.94-1.8-9.38-5.14h25a18.87,18.87,0,0,0,.36-4.06C196.76,53.64,189.37,46.42,179.35,46.42Zm-8.48,14.88c1-4,4-6,8.57-6s7.58,2.16,8.57,6ZM350.09,46.42c-10.1,0-17.59,7.31-17.59,17.95S340,82.32,350.09,82.32,367.68,75,367.68,64.37,360.19,46.42,350.09,46.42Zm0,26.7c-5.14,0-8.93-3.43-8.93-8.66s3.79-8.66,8.93-8.66S359,59.14,359,64.46,355.32,73.12,350.09,73.12Zm-16.87-25L329,57.52A8.54,8.54,0,0,0,323.93,56a6.91,6.91,0,0,0-6.4,3.7V81.6h-8.84V53.91l-1.44-6.76h9.11l.9,4.33a10.91,10.91,0,0,1,9.47-5.14A13.23,13.23,0,0,1,333.22,48.14Zm56.19-1.71c-10.1,0-17.59,7.31-17.59,17.95s7.49,17.95,17.59,17.95S407,75,407,64.37,399.51,46.42,389.41,46.42Zm0,26.7c-5.14,0-8.93-3.43-8.93-8.66s3.79-8.66,8.93-8.66,8.93,3.34,8.93,8.66S394.64,73.12,389.41,73.12ZM256.2,47.24h9.65L256.56,81.6H242.31L233,47.15h9.56L249.34,75ZM229.41,36.86a5.55,5.55,0,1,1-5.5-5.59A5.43,5.43,0,0,1,229.41,36.86Zm56.19,9.56c-10,0-17.32,7.22-17.32,17.95,0,10.91,7.31,17.95,18.58,17.95a25.69,25.69,0,0,0,13.89-4l-3.43-7.58A22.22,22.22,0,0,1,287,73.48c-4.69,0-7.94-1.8-9.38-5.14h25a18.88,18.88,0,0,0,.36-4.06C302.92,53.64,295.52,46.42,285.6,46.42ZM277,61.31c1-4,4-6,8.57-6s7.58,2.16,8.57,6ZM219.4,47.24h8.84V81.6H219.4ZM8.19,93.52l67.09,14.27L90.63,73.32l7.3-69.49L71,1,66.1,48.08,57.68,8.39,31.17,14,39.6,53.68,1.46,61.78ZM61.44,67.81a3.91,3.91,0,0,1,.85-2A4,4,0,0,1,65.16,64a5.16,5.16,0,0,1,4.61,2.4c.94,1.6.47,3.34-.52,5.08s-3.63,2-6.26.71C61.21,71.34,61.25,69.13,61.44,67.81ZM42.56,64c.56-2.12,3.11-2.4,4.43-2.45a3.6,3.6,0,0,1,1.41.28c.89.42,2.45,1.27,2.78,2.64a4.61,4.61,0,0,1-1.37,4.8c-1.37,1.27-3.2,1.13-5.13.52S41.86,66.82,42.56,64Z"/></svg>