<?xml version="1.0" encoding="utf-8"?>
<!-- Generator: Adobe Illustrator 21.1.0, SVG Export Plug-In . SVG Version: 6.00 Build 0)  -->
<svg version="1.1" id="Layer_1" xmlns="http://www.w3.org/2000/svg" xmlns:xlink="http://www.w3.org/1999/xlink" x="0px" y="0px"
	 viewBox="0 0 141 121.5" style="enable-background:new 0 0 141 121.5;" xml:space="preserve">
<style type="text/css">
	.st0{fill:#FFFFFF;}
</style>
<path class="st0" d="M22,114.4h4l-0.7-3.1V92.6h-3.9v8.5c-1.2-1.4-2.8-2.1-4.7-2.1c-3.9,0-6.9,3.2-6.9,7.9c0,4.7,3,7.9,6.9,7.9
	c1.9,0,3.6-0.8,4.7-2.2L22,114.4C22,114.4,22,114.4,22,114.4z M98.6,103.2c0.8,0,1.5,0.2,2.2,0.7l1.8-4.1c-0.8-0.5-1.8-0.8-2.8-0.8
	c-1.7,0-3.2,0.8-4.1,2.3l-0.4-1.9h-4l0.6,3v12.2h3.9v-9.7C96.4,103.8,97.3,103.2,98.6,103.2L98.6,103.2L98.6,103.2L98.6,103.2z
	 M110,110.7c-2.2,0-3.9-1.5-3.9-3.8c0-2.3,1.7-3.8,3.9-3.8c2.3,0,3.9,1.5,3.9,3.8C113.9,109.2,112.3,110.7,110,110.7L110,110.7z
	 M13.8,106.9c0-2.3,1.7-3.8,3.9-3.8c2.3,0,3.9,1.5,3.9,3.8c0,2.3-1.6,3.8-3.9,3.8C15.4,110.7,13.8,109.2,13.8,106.9z M127.1,110.7
	c-2.2,0-3.9-1.5-3.9-3.8c0-2.3,1.7-3.8,3.9-3.8c2.3,0,3.9,1.5,3.9,3.8C131,109.2,129.4,110.7,127.1,110.7z M35.5,102.8
	c2,0,3.3,0.9,3.7,2.7h-7.5C32.2,103.7,33.5,102.8,35.5,102.8C35.5,102.8,35.5,102.8,35.5,102.8z M81.8,102.8c2,0,3.3,0.9,3.7,2.7
	h-7.5C78.6,103.7,79.9,102.8,81.8,102.8L81.8,102.8z M62.9,114.4h6.2l4-15.1H69l-3,12.3l-3-12.3h-4.2L62.9,114.4L62.9,114.4
	L62.9,114.4z M53,114.4h3.9V99.3H53V114.4z M36.1,114.7c2.2,0,4.3-0.6,6.1-1.7l-1.5-3.3c-1.4,0.7-2.9,1.2-4.5,1.2
	c-2,0-3.5-0.8-4.1-2.3H43c0.1-0.6,0.2-1.1,0.2-1.8c0-4.7-3.2-7.8-7.6-7.8c-4.4,0-7.6,3.2-7.6,7.9C28,111.6,31.2,114.7,36.1,114.7
	L36.1,114.7L36.1,114.7z M134.8,106.9c0-4.7-3.3-7.9-7.7-7.9c-4.4,0-7.7,3.2-7.7,7.9c0,4.7,3.3,7.9,7.7,7.9
	C131.5,114.7,134.8,111.5,134.8,106.9L134.8,106.9z M82.4,114.7c2.2,0,4.3-0.6,6.1-1.7l-1.5-3.3c-1.4,0.7-2.9,1.2-4.5,1.2
	c-2,0-3.5-0.8-4.1-2.3h10.9c0.1-0.6,0.2-1.1,0.2-1.8c0-4.7-3.2-7.8-7.6-7.8c-4.4,0-7.6,3.2-7.6,7.9
	C74.3,111.7,77.4,114.7,82.4,114.7L82.4,114.7L82.4,114.7z M110,114.7c4.4,0,7.7-3.2,7.7-7.9c0-4.7-3.3-7.9-7.7-7.9
	s-7.7,3.2-7.7,7.9C102.3,111.5,105.6,114.7,110,114.7L110,114.7z M45.6,114.4h3.9V92.6h-3.9L45.6,114.4L45.6,114.4L45.6,114.4z
	 M54.9,97.2c1.4,0,2.4-1.1,2.4-2.5c0-1.4-1-2.5-2.4-2.5c-1.4,0-2.4,1.1-2.4,2.5C52.5,96.1,53.5,97.2,54.9,97.2L54.9,97.2L54.9,97.2z
	 M80.6,6.2L77,40.5l-6.2-28.9l-19.4,4.1l6.2,28.9l-27.9,5.9l4.9,23.1l49.1,10.4L95,58.9l5.3-50.6L80.6,6.2L80.6,6.2z M65.1,55.9
	c-1,0.9-2.4,0.8-3.8,0.4c-1.4-0.5-2-2.2-1.5-4.2c0.4-1.5,2.3-1.8,3.2-1.8c0.4,0,0.7,0.1,1,0.2c0.7,0.3,1.8,0.9,2,1.9
	C66.4,53.8,66.1,55,65.1,55.9L65.1,55.9L65.1,55.9z M79.3,57.5c-0.7,1.3-2.7,1.4-4.6,0.5c-1.3-0.6-1.3-2.2-1.1-3.2
	c0.1-0.5,0.3-1,0.6-1.4c0.5-0.6,1.2-1.3,2.1-1.3c1.4,0,2.7,0.6,3.4,1.8C80.4,55,80.1,56.3,79.3,57.5L79.3,57.5z"/>
</svg>
