<?xml version="1.0" encoding="UTF-8" standalone="no"?><!DOCTYPE svg PUBLIC "-//W3C//DTD SVG 1.1//EN" "http://www.w3.org/Graphics/SVG/1.1/DTD/svg11.dtd"><svg width="100%" height="100%" viewBox="0 0 279 95" version="1.1" xmlns="http://www.w3.org/2000/svg" xmlns:xlink="http://www.w3.org/1999/xlink" xml:space="preserve" style="fill-rule:evenodd;clip-rule:evenodd;stroke-linejoin:round;stroke-miterlimit:1.41421;"><path d="M123.781,41.483c0.096,0 0.193,0 0.386,0c1.063,0 1.932,-0.676 2.125,-1.739c0.677,-3.574 3.092,-6.666 6.473,-8.405c0.483,-0.29 0.869,-0.676 1.063,-1.256c0.193,-0.483 0.096,-1.062 -0.194,-1.545c-0.386,-0.677 -1.062,-1.063 -1.932,-1.063c-0.29,0 -0.676,0.097 -0.966,0.193c-4.54,2.319 -7.825,6.569 -8.694,11.4c-0.097,0.579 0,1.062 0.386,1.545c0.29,0.387 0.773,0.773 1.353,0.87Z" style="fill:#fff;fill-rule:nonzero;"/><path d="M139.527,30.083c5.99,0 11.11,4.058 12.076,9.661c0.193,0.966 1.063,1.739 2.125,1.739c0.097,0 0.29,0 0.387,0c0.58,-0.097 1.063,-0.386 1.449,-0.87c0.29,-0.483 0.483,-0.966 0.386,-1.545c-1.449,-7.632 -8.308,-13.139 -16.423,-13.139c-1.159,0 -2.028,0.966 -2.028,2.029c-0.097,1.159 0.869,2.125 2.028,2.125l0,0Z" style="fill:#fff;fill-rule:nonzero;"/><path d="M153.825,44.768c-0.966,0 -1.835,0.676 -2.125,1.642c-0.29,1.159 -0.676,2.318 -1.256,3.381c-1.546,2.608 -5.7,7.729 -9.757,12.655c-0.773,0.967 -2.222,1.063 -3.092,0.194c-0.096,-0.097 -0.193,-0.194 -0.193,-0.194c-4.154,-4.83 -8.308,-10.047 -9.757,-12.655c-0.58,-1.063 -1.063,-2.125 -1.256,-3.381c-0.483,-1.159 -1.642,-1.836 -2.802,-1.546c-1.062,0.29 -1.739,1.353 -1.545,2.415c0.386,1.546 0.966,3.092 1.739,4.444c2.511,4.347 10.626,13.718 13.041,16.52c1.063,1.159 2.899,1.352 4.058,0.29c0.096,-0.097 0.193,-0.194 0.29,-0.29c2.415,-2.802 10.53,-12.173 13.042,-16.52c0.772,-1.352 1.352,-2.898 1.738,-4.444c0.29,-1.159 -0.483,-2.222 -1.642,-2.511c-0.193,0 -0.29,0 -0.483,0Z" style="fill:#fff;fill-rule:nonzero;"/></svg>