<?xml version="1.0" encoding="utf-8"?>
<!-- Generator: Adobe Illustrator 21.1.0, SVG Export Plug-In . SVG Version: 6.00 Build 0)  -->
<svg version="1.1" id="Layer_1" xmlns="http://www.w3.org/2000/svg" xmlns:xlink="http://www.w3.org/1999/xlink" x="0px" y="0px"
	 viewBox="0 0 58 118" style="enable-background:new 0 0 58 118;" xml:space="preserve">
<style type="text/css">
	.st0{fill:#B7B7B7;}
</style>
<ellipse class="st0" cx="29.5" cy="109" rx="22.5" ry="4"/>
<g transform="translate(5479.042 1435.5)">
	<path d="M-5430.6-1332.2c-2.7-7.5-5.3-15.5-7.5-22.8c-2.3-8.5-3.3-20.6-5.8-28.5c6.4-4.3,10.5-7.3,11.1-11.8
		c0.6-4.6-2.7-8.9-8.3-15.6c-0.3-0.3-0.6-0.6-1-0.8c-3.7-1.8-9.5-1.7-12.5-1.1c-0.4,0.1-0.7,0.2-1,0.4c-8.1,5.2-13,9.3-13.4,14.7
		c-0.4,5.3,3.8,9.9,8,13.7c0.3,0.2,0.6,0.4,1,0.6c-1.2,5.3-3.2,14.6-4.8,25c-0.5,2.8-1,5.6-1.5,8.6c-1.7,10.9-2.4,18.9-2.4,19.2
		c-0.2,2.3,1.5,4.3,3.8,4.5c0,0,0,0,0,0c0.1,0,0.3,0,0.4,0c2.2,0,4-1.7,4.2-3.8c0-0.2,1.1-12.7,3.8-27.1c3-0.5,5.8-1.6,8.7-1.6
		c2.7,9.1,6,19.5,9.4,29.2c0.6,1.7,2.2,2.8,3.9,2.8c0.5,0,1-0.1,1.4-0.3C-5431-1327.6-5429.8-1330-5430.6-1332.2
		C-5430.6-1332.2-5430.6-1332.2-5430.6-1332.2z M-5439.2-1396.3c-0.2,1.6-3.6,4.1-7.4,6.7c-0.5-6.9,1.2-12.3,2.6-14.4
		c0-0.1,0.1-0.1,0.1-0.2C-5441.1-1400.8-5439-1397.8-5439.2-1396.3z M-5462.5-1397.2c0.2-2.1,3-4.6,6.5-7.1
		c-1.5,4.6-2.1,9.5-1.8,14.4C-5461.1-1393-5462.7-1395.5-5462.5-1397.2z"/>
	<circle cx="-5450.5" cy="-1423.1" r="6.4"/>
</g>
</svg>
