<svg xmlns="http://www.w3.org/2000/svg" viewBox="5366.14 513.78 155 79.219"><defs><style>.a{fill:#3d3c3d;}.b{fill:#ee1c51;}.c{fill:#f04f28;}.d{fill:#f37821;}.e{fill:#f8a220;}.f{fill:#fde000;}.g{fill:#fbc619;}</style></defs><g transform="translate(5365.54 513.78)"><path class="a" d="M21.176,161.8H17.764a.814.814,0,0,0-.8.8v14.019a.212.212,0,0,1-.368.134L6.02,162.369a1.349,1.349,0,0,0-1.1-.569H1.671A1.057,1.057,0,0,0,.6,162.871v22.015a.828.828,0,0,0,.836.836H4.782a.828.828,0,0,0,.836-.836V172.038c0-1.037.435-1.2,1.238-.1l9.4,12.781a2.553,2.553,0,0,0,2.007,1.037h2.643a1.057,1.057,0,0,0,1.071-1.071V162.636A.822.822,0,0,0,21.176,161.8Z" transform="translate(0 -107.666)"/><g transform="translate(89.395 53.833)"><path class="a" d="M269.881,185.156H267.1a1.114,1.114,0,0,1-1.1-1.1V161.8a.9.9,0,0,1,.9-.9h3.212a.9.9,0,0,1,.9.9v22.249A1.121,1.121,0,0,1,269.881,185.156Z" transform="translate(-266 -160.9)"/></g><g transform="translate(115.057 53.833)"><path class="a" d="M346.815,185.156H343.6a.9.9,0,0,1-.9-.9V161.971a1.078,1.078,0,0,1,1.071-1.071h2.844a1.078,1.078,0,0,1,1.071,1.071v22.282A.852.852,0,0,1,346.815,185.156Z" transform="translate(-342.7 -160.9)"/></g><path class="a" d="M91.063,161.733a.743.743,0,0,0-.736.736v10a9.8,9.8,0,0,1-2.342,6.725,4.92,4.92,0,0,1-3.613,1.572h0a4.578,4.578,0,0,1-3.68-1.606,9.012,9.012,0,0,1-1.639-5.822V162.5a.814.814,0,0,0-.8-.8H74.8a.814.814,0,0,0-.8.8v10.84c0,3.747.97,6.859,2.844,9.067a9.672,9.672,0,0,0,7.528,3.379h.033a9.934,9.934,0,0,0,4.985-1.338.643.643,0,0,1,.97.569h0a.671.671,0,0,0,.669.669h2.71a1.678,1.678,0,0,0,1.673-1.673V162.47a.743.743,0,0,0-.736-.736Z" transform="translate(-48.842 -107.6)"/><path class="a" d="M144.2,162.169v3.781a.635.635,0,0,0,.636.636h5.32a.371.371,0,0,1,.368.368V184.92a.635.635,0,0,0,.636.636h3.647a.743.743,0,0,0,.736-.736v-17.9a.371.371,0,0,1,.368-.368H161.1a.635.635,0,0,0,.636-.636v-3.781a.635.635,0,0,0-.636-.636h-16.26A.687.687,0,0,0,144.2,162.169Z" transform="translate(-95.556 -107.467)"/><path class="a" d="M305.551,164.415V161.37a.971.971,0,0,0-.97-.97H292.8a1.007,1.007,0,0,0-1,1V183.92a.935.935,0,0,0,.937.937h3.112a.935.935,0,0,0,.937-.937v-7.729a.371.371,0,0,1,.368-.368h4.784a1.007,1.007,0,0,0,1-1v-3.045a1.007,1.007,0,0,0-1-1H297.22a.371.371,0,0,1-.368-.368v-4.651a.371.371,0,0,1,.368-.368h7.361A.971.971,0,0,0,305.551,164.415Z" transform="translate(-193.773 -106.735)"/><path class="a" d="M382.463,172.778l7.394-10.974a.644.644,0,0,0-.535-1h-4.483a.643.643,0,0,0-.535.3l-4.851,7.193a.36.36,0,0,1-.6,0L373.5,161.1a.735.735,0,0,0-.636-.3h-4.316a.786.786,0,0,0-.636,1.238l8.1,10.874a.352.352,0,0,1,0,.435l-6.792,10.071a.931.931,0,0,0,.77,1.439H373.8a.982.982,0,0,0,.77-.4l4.483-6.625a.36.36,0,0,1,.6,0l5.052,6.758a.745.745,0,0,0,.569.3h4.483a.721.721,0,0,0,.569-1.138L382.5,173.213A.411.411,0,0,1,382.463,172.778Z" transform="translate(-244.32 -107.001)"/><g transform="translate(68.485 54.167)"><path class="a" d="M217.953,179.365c0-.033.033-.033,0,0a9.5,9.5,0,0,0,3.178-7.327c0-5.855-4.416-9.836-11.208-10.138h-5.152a1.271,1.271,0,0,0-1.271,1.271v21.781a.9.9,0,0,0,.9.9h3.212a.9.9,0,0,0,.9-.9v-2.309a.371.371,0,0,1,.368-.368h.435a16.093,16.093,0,0,0,3.914-.468.384.384,0,0,1,.4.167l2.275,3.546a.828.828,0,0,0,.7.368H220.6a.832.832,0,0,0,.7-1.271Zm-3.312-3.781a7.815,7.815,0,0,1-5.353,1.606h-.4a.371.371,0,0,1-.368-.368v-9.535a.371.371,0,0,1,.368-.368h.836c2.409.1,6.424.9,6.424,5.119A4.652,4.652,0,0,1,214.641,175.584Z" transform="translate(-203.5 -161.9)"/></g><circle class="a" cx="2.877" cy="2.877" r="2.877" transform="translate(147.463 75.15) rotate(-45)"/><path class="b" d="M205.614,16.426A16.587,16.587,0,0,0,189.889.3h-1.572a16.587,16.587,0,0,0-15.725,16.126,16.282,16.282,0,0,0,2.041,8.331c2.61,4.651,11.309,15.123,13.818,18.067a.894.894,0,0,0,1.338,0c2.476-2.978,11.208-13.45,13.818-18.067A16.6,16.6,0,0,0,205.614,16.426Z" transform="translate(-114.445 -0.2)"/><g transform="translate(58.113)"><path class="c" d="M189.028,26.177H172.5A16.378,16.378,0,0,1,177.351,14.5h0Z" transform="translate(-172.5 -9.649)"/><path class="d" d="M187,4.851h0A16.378,16.378,0,0,1,198.677,0V16.528Z" transform="translate(-182.149)"/><path class="e" d="M221.9,16.528V0a16.378,16.378,0,0,1,11.677,4.851h0Z" transform="translate(-205.372)"/><path class="f" d="M221.9,49.4h16.528c.067,5.119-1.773,7.8-4.316,11.442" transform="translate(-205.372 -32.872)"/><path class="g" d="M233.677,14.5h0a16.517,16.517,0,0,1,4.851,11.677H222Z" transform="translate(-205.439 -9.649)"/></g></g></svg>