<?xml version="1.0" encoding="utf-8"?>
<!-- Generator: Adobe Illustrator 21.1.0, SVG Export Plug-In . SVG Version: 6.00 Build 0)  -->
<svg version="1.1" id="Layer_1" xmlns="http://www.w3.org/2000/svg" xmlns:xlink="http://www.w3.org/1999/xlink" x="0px" y="0px"
	 viewBox="0 0 58 118" style="enable-background:new 0 0 58 118;" xml:space="preserve">
<style type="text/css">
	.st0{fill:#B7B7B7;}
</style>
<ellipse cx="29.2" cy="12.2" rx="6.2" ry="6.2"/>
<ellipse class="st0" cx="29.5" cy="109" rx="22.5" ry="4"/>
<path d="M38.5,23.3c-0.1-0.1-0.3-0.2-0.5-0.2c-6.3-2.8-12.2-2.7-18,0c-0.2,0.1-0.3,0.2-0.5,0.3c-5,3.3-10.7,7.8-10.6,13.9
	c0.1,6.4,6.3,11.1,13,15.4c0.5,0.3,1.1,0.5,1.7,0.6c-3,23-12.1,49.5-12.2,49.8c-0.7,2.2,0.4,4.5,2.5,5.3c0.4,0.2,0.9,0.2,1.4,0.2
	c1.8,0,3.3-1.1,3.9-2.8c4.6-13.6,8.3-27.5,11-41.5c3.7,13.1,6.3,26.5,7.7,40c0.2,2.1,2,3.7,4.1,3.7c0.1,0,0.3,0,0.4,0
	c2.3-0.2,3.9-2.2,3.7-4.5C44.5,86.6,41,70,35.8,54c0.4-0.1,0.7-0.2,1.1-0.4c5.3-2.9,11.7-7.9,11.8-15.2
	C48.8,32.7,45.1,27.3,38.5,23.3z M16.8,37.2c0-0.9,0.8-3,6.1-6.6c1.3,4.7,1.8,9.5,1.5,14.3C18.2,40.8,16.8,38.4,16.8,37.2L16.8,37.2
	z M35.5,45.3c0.2-5.2-0.2-10.4-1.4-15.5c0.2,0.1,0.4,0.2,0.6,0.3c3.9,2.4,6.2,5.4,6.2,8.1C40.8,40.5,38.9,43,35.5,45.3L35.5,45.3z"
	/>
</svg>
