<?xml version="1.0" encoding="UTF-8" standalone="no"?><!DOCTYPE svg PUBLIC "-//W3C//DTD SVG 1.1//EN" "http://www.w3.org/Graphics/SVG/1.1/DTD/svg11.dtd"><svg width="100%" height="100%" viewBox="0 0 72 34" version="1.1" xmlns="http://www.w3.org/2000/svg" xmlns:xlink="http://www.w3.org/1999/xlink" xml:space="preserve" style="fill-rule:evenodd;clip-rule:evenodd;stroke-linejoin:round;stroke-miterlimit:1.41421;"><g><g><g id="Page-1"><path id="path0_stroke" d="M14.89,5.67l-0.024,-0.146c-0.058,0.01 -0.105,0.053 -0.119,0.11c-0.014,0.058 0.007,0.118 0.054,0.153l0.089,-0.117Zm0.679,0.514l-0.09,0.118c0.039,0.029 0.09,0.038 0.136,0.022c0.047,-0.015 0.082,-0.052 0.096,-0.099l-0.142,-0.041Zm0.421,0.047l-0.148,0c0,0.057 0.033,0.11 0.085,0.134c0.053,0.024 0.114,0.016 0.158,-0.022l-0.095,-0.112Zm0.35,-0.031l0.105,-0.105l0,0l-0.105,0.105Zm0.055,0.311l-0.105,-0.104c-0.04,0.04 -0.054,0.101 -0.034,0.155c0.02,0.054 0.069,0.092 0.126,0.097l0.013,-0.148Zm0.203,0.141l0.145,-0.027l0,-0.001l-0.145,0.028Zm-0.039,0.241l-0.131,-0.069c-0.034,0.064 -0.016,0.145 0.043,0.188l0.088,-0.119Zm1.582,1.17l-0.088,0.118c0.048,0.036 0.113,0.039 0.164,0.008c0.051,-0.03 0.079,-0.089 0.07,-0.148l-0.146,0.022Zm-0.39,-2.658l-0.147,-0.014c-0.001,0.012 -0.001,0.023 0.001,0.035l0.146,-0.021Zm-0.054,-0.149l-0.105,0.105l0,0l0.105,-0.105Zm-0.203,-0.031l-0.024,-0.146l0,0l0.024,0.146Zm-2.693,0.562l0.678,0.515l0.179,-0.236l-0.678,-0.514l-0.179,0.235Zm0.768,0.397c0.142,0.041 0.142,0.041 0.142,0.041c0,0 0,0 0,0c0,0 0,0 0,0c0,0 -0.001,0.001 -0.001,0c0,0 0,0.001 0,0.001c0,0 0,0.001 0,0.001c0,0 0,0 0,-0.001c0.001,-0.003 0.002,-0.004 0.003,-0.008c0.005,-0.011 0.008,-0.016 0.016,-0.026c0.013,-0.017 0.024,-0.024 0.042,-0.024l0,-0.295c-0.138,0 -0.228,0.075 -0.277,0.14c-0.023,0.03 -0.042,0.066 -0.051,0.085c-0.005,0.012 -0.009,0.023 -0.011,0.03c-0.002,0.003 -0.003,0.007 -0.004,0.009c0,0.002 -0.001,0.003 -0.001,0.004l-0.001,0.002c0,0 0,0 0.143,0.041Zm0.202,-0.016c0.018,0 0.028,0.004 0.035,0.007c0.007,0.003 0.013,0.008 0.018,0.015c0.006,0.007 0.011,0.016 0.014,0.024c0.002,0.006 0.002,0.006 0.003,0.012c0.001,0.002 0,0.001 0.001,0.003c0,0.002 0,0.003 0,0.002l0.295,0c0,-0.131 -0.102,-0.358 -0.366,-0.358l0,0.295Zm0.219,0.063c0.095,0.112 0.095,0.112 0.095,0.112c0,0 0,0.001 0,0.001c0,0 0,0 0,0c0,0 0,0 0,0c0,0 -0.001,0 -0.001,0c0,0 0,0 0.001,0c0.001,-0.001 0.001,-0.002 0.003,-0.003c0.005,-0.003 0.009,-0.007 0.017,-0.012c0.018,-0.012 0.034,-0.021 0.057,-0.029c0.044,-0.017 0.06,-0.009 0.074,0.004l0.209,-0.209c-0.131,-0.131 -0.29,-0.108 -0.386,-0.073c-0.046,0.018 -0.091,0.043 -0.116,0.06c-0.014,0.009 -0.027,0.018 -0.034,0.024c-0.004,0.003 -0.008,0.006 -0.01,0.008c-0.001,0.001 -0.003,0.002 -0.003,0.002l-0.002,0.002c0,0 0,0 0,0c0,0 0,0 0.096,0.113Zm0.246,0.073c0.046,0.046 0.05,0.079 0.049,0.093c0,0.008 -0.001,0.015 -0.003,0.019c-0.002,0.006 -0.002,0.001 0.008,-0.009l0.209,0.209c0.088,-0.087 0.149,-0.317 -0.054,-0.521l-0.209,0.209Zm0.159,0.207c-0.013,0.148 -0.013,0.148 -0.013,0.148c0,0 0,0 0,0c0,0 0,0 0,0c0,0 -0.001,0 -0.001,0c0,0 0,0 0,0c0,0 0,0 0,0c0,0 0,0 0.002,0c0.003,0 0.006,0.001 0.011,0.002c0.014,0.002 0.023,0.004 0.037,0.011c0.032,0.012 0.024,0.019 0.021,0.007l0.291,-0.055c-0.026,-0.136 -0.135,-0.2 -0.2,-0.226c-0.033,-0.013 -0.07,-0.023 -0.091,-0.027c-0.012,-0.002 -0.023,-0.004 -0.03,-0.005c-0.003,-0.001 -0.007,-0.001 -0.009,-0.001c-0.001,0 -0.003,-0.001 -0.003,-0.001l-0.002,0c0,0 0,0 0,0c0,0 0,0 0,0c0,0 0,0 -0.013,0.147Zm0.057,0.168c0.009,0.037 0.003,0.064 -0.007,0.1c-0.005,0.016 -0.009,0.026 -0.013,0.036c-0.002,0.005 -0.003,0.006 -0.004,0.009c0,0.001 -0.001,0.001 -0.001,0.001c0,0 0.001,0 0.001,0c0,0 0,-0.001 0,-0.001c0,0 0,0 0,0c0,0 0,0 0,0c0,0 0,0 0,0c0,0 0,0 0.131,0.069c0.13,0.07 0.13,0.07 0.13,0.07l0.001,-0.002c0,0 0,-0.001 0.001,-0.002c0.001,-0.001 0.002,-0.004 0.003,-0.007c0.002,-0.004 0.006,-0.012 0.01,-0.021c0.006,-0.016 0.017,-0.043 0.025,-0.071c0.015,-0.054 0.028,-0.148 0.014,-0.235l-0.291,0.054Zm0.019,0.333l1.582,1.169l0.176,-0.237l-1.583,-1.17l-0.175,0.238Zm1.816,1.029l-0.39,-2.658l-0.292,0.043l0.39,2.658l0.292,-0.043Zm-0.536,-2.636c0.147,0.013 0.147,0.013 0.147,0.013l0.001,-0.002c0,-0.001 0,-0.002 0,-0.003c0,-0.001 0,-0.004 0,-0.007c0,-0.004 0,-0.012 0,-0.02c0,-0.013 -0.002,-0.038 -0.007,-0.061c-0.008,-0.041 -0.04,-0.117 -0.091,-0.173l-0.209,0.209c0.004,0.004 0.008,0.011 0.01,0.022c0.002,0.006 0.002,0.006 0.002,0.011c0,0.001 0,0.002 0,0.001c0,0 0,-0.001 0,-0.001c0,0 0,-0.001 0,-0.001c0,0 0,-0.001 0,-0.001c0,0 0,0 0,0c0,0 0,-0.001 0,-0.001c0,0 0,0 0,0c0,0 0,0 0.147,0.014Zm0.05,-0.253c-0.026,-0.026 -0.076,-0.08 -0.16,-0.09c-0.027,-0.003 -0.061,0 -0.086,0.003c-0.024,0.004 -0.052,0.009 -0.085,0.014l0.048,0.292c0.037,-0.006 0.061,-0.011 0.079,-0.013c0.02,-0.003 0.018,-0.002 0.011,-0.002c-0.006,-0.001 -0.013,-0.003 -0.02,-0.006c-0.007,-0.002 -0.012,-0.005 -0.014,-0.007c-0.002,-0.001 0.001,0.001 0.018,0.018l0.209,-0.209Zm-0.331,-0.073c-0.071,0.012 -0.722,0.123 -1.355,0.231c-0.317,0.055 -0.629,0.108 -0.862,0.148c-0.117,0.02 -0.214,0.036 -0.281,0.048c-0.034,0.006 -0.061,0.01 -0.079,0.013l-0.027,0.005c0,0 0,0 0.024,0.146c0.025,0.145 0.025,0.145 0.025,0.145l0.028,-0.004c0.018,-0.004 0.045,-0.008 0.078,-0.014c0.068,-0.011 0.165,-0.028 0.281,-0.048c0.234,-0.04 0.546,-0.093 0.862,-0.147c0.634,-0.108 1.284,-0.219 1.354,-0.231l-0.048,-0.292Z" style="fill:#fff;fill-rule:nonzero;"/><path id="path1_stroke" d="M16.099,5.362c-0.046,0.067 -0.029,0.159 0.038,0.206c0.067,0.046 0.159,0.03 0.205,-0.038l-0.243,-0.168Zm0.543,-0.523l0.111,-0.098c-0.03,-0.034 -0.074,-0.053 -0.12,-0.05c-0.045,0.003 -0.087,0.026 -0.112,0.063l0.121,0.085Zm0.294,0.557c0.054,0.061 0.148,0.067 0.209,0.013c0.061,-0.054 0.067,-0.147 0.013,-0.209l-0.222,0.196Zm-0.594,0.134l0.422,-0.607l-0.243,-0.169l-0.422,0.608l0.243,0.168Zm0.189,-0.594l0.405,0.46l0.222,-0.196l-0.405,-0.459l-0.222,0.195Z" style="fill:#fff;fill-rule:nonzero;"/><path id="path2_stroke" d="M17.817,5.883c-0.08,0.016 -0.131,0.094 -0.115,0.174c0.016,0.08 0.095,0.132 0.175,0.115l-0.06,-0.289Zm0.443,0.347l-0.137,0.056l0,0l0.137,-0.056Zm-0.174,0.533c-0.042,0.071 -0.018,0.161 0.052,0.203c0.071,0.041 0.161,0.017 0.203,-0.053l-0.255,-0.15Zm-0.239,-0.736c0.03,0.145 0.029,0.145 0.029,0.145c0,0 0,0 0,0c0,0 0,0 0,0c0,0 0,0 0,0c0,0 -0.001,0 -0.001,0c0,0.001 0,0 0.001,0c0.001,0 0.002,0 0.004,0c0.007,-0.001 0.013,-0.002 0.024,-0.003c0.026,-0.001 0.048,-0.001 0.08,0.005c0.056,0.011 0.109,0.038 0.139,0.112l0.274,-0.112c-0.079,-0.191 -0.233,-0.266 -0.356,-0.29c-0.058,-0.01 -0.118,-0.012 -0.153,-0.01c-0.02,0.001 -0.038,0.003 -0.048,0.005c-0.006,0.001 -0.012,0.002 -0.015,0.002c-0.002,0.001 -0.004,0.001 -0.005,0.001l-0.003,0.001c0,0 0,0 0.03,0.144Zm0.276,0.259c0.055,0.122 0.043,0.228 0.018,0.329c-0.012,0.048 -0.025,0.083 -0.038,0.112c-0.006,0.014 -0.01,0.022 -0.014,0.03c-0.002,0.003 -0.002,0.004 -0.003,0.006c-0.001,0.001 -0.001,0.001 -0.001,0.001c0,0 0,0 0,0c0,0 0,0 0,0c0,0 0.001,-0.001 0.001,-0.001c0,0 0,0 0,0c0,0 0,0 0.127,0.075c0.128,0.075 0.128,0.075 0.128,0.075l0.001,-0.003c0.001,0 0.002,-0.002 0.002,-0.004c0.002,-0.003 0.005,-0.008 0.008,-0.013c0.005,-0.011 0.013,-0.028 0.022,-0.047c0.016,-0.036 0.038,-0.095 0.054,-0.161c0.03,-0.125 0.042,-0.323 -0.031,-0.511l-0.274,0.112Z" style="fill:#fff;fill-rule:nonzero;"/><path id="path3_stroke" d="M18.032,6.442c-0.053,-0.062 -0.146,-0.069 -0.208,-0.015c-0.062,0.053 -0.068,0.146 -0.015,0.208l0.223,-0.193Zm0.442,0.736l0.082,0.123c0.035,-0.024 0.059,-0.062 0.065,-0.104c0.005,-0.042 -0.007,-0.084 -0.035,-0.116l-0.112,0.097Zm-0.433,0.11c-0.068,0.046 -0.086,0.137 -0.041,0.205c0.046,0.068 0.137,0.087 0.205,0.041l-0.164,-0.246Zm-0.232,-0.653l0.553,0.639l0.224,-0.193l-0.554,-0.639l-0.223,0.193Zm0.583,0.42l-0.351,0.233l0.164,0.246l0.351,-0.233l-0.164,-0.246Z" style="fill:#fff;fill-rule:nonzero;"/><path id="path4_stroke" d="M18.1,7.834c-0.078,0.023 -0.123,0.106 -0.099,0.184c0.023,0.078 0.106,0.122 0.184,0.099l-0.085,-0.283Zm0.345,-0.564c-0.045,-0.068 -0.136,-0.087 -0.204,-0.042c-0.069,0.045 -0.088,0.136 -0.043,0.204l0.247,-0.162Zm-0.303,0.705c0.043,0.142 0.043,0.142 0.043,0.142l0.002,-0.001c0,0 0.001,0 0.002,-0.001c0.001,0 0.004,-0.001 0.007,-0.002c0.004,-0.001 0.012,-0.004 0.02,-0.007c0.015,-0.006 0.041,-0.017 0.066,-0.03c0.048,-0.025 0.122,-0.075 0.179,-0.138c0.052,-0.062 0.105,-0.171 0.112,-0.285c0.003,-0.119 -0.038,-0.247 -0.128,-0.383l-0.247,0.162c0.067,0.102 0.081,0.171 0.079,0.213c0.003,0.049 -0.009,0.066 -0.04,0.1c-0.027,0.033 -0.056,0.05 -0.091,0.068c-0.015,0.008 -0.026,0.013 -0.037,0.017c-0.004,0.002 -0.006,0.002 -0.009,0.003c-0.001,0.001 -0.001,0.001 -0.001,0.001c0,0 0,0 0,0c0,0 0,0 0,0c0,0 0.001,0 0,0c0.001,0 0.001,0 0.001,0c0,0 0,0 0.042,0.141Z" style="fill:#fff;fill-rule:nonzero;"/></g><g id="Page-11"><path id="path5_stroke" d="M12.893,13.954l0.076,0.127l0,0l-0.076,-0.127Zm-0.753,-1.243l0.077,0.126l0,0l-0.077,-0.126Zm1.283,0.073c0.066,0.11 0.065,0.277 -0.041,0.478c-0.104,0.198 -0.3,0.405 -0.566,0.566l0.153,0.253c0.304,-0.184 0.541,-0.429 0.674,-0.682c0.132,-0.25 0.174,-0.534 0.033,-0.768l-0.253,0.153Zm-0.607,1.044c-0.266,0.161 -0.54,0.238 -0.764,0.238c-0.228,0.001 -0.375,-0.075 -0.442,-0.185l-0.253,0.153c0.141,0.233 0.413,0.328 0.695,0.328c0.286,-0.001 0.613,-0.097 0.917,-0.281l-0.153,-0.253Zm-1.206,0.053c-0.067,-0.11 -0.065,-0.276 0.041,-0.478c0.104,-0.198 0.3,-0.405 0.566,-0.566l-0.153,-0.253c-0.305,0.184 -0.541,0.429 -0.675,0.682c-0.132,0.25 -0.173,0.534 -0.032,0.768l0.253,-0.153Zm0.607,-1.044c0.266,-0.161 0.54,-0.238 0.764,-0.238c0.227,-0.001 0.375,0.075 0.442,0.185l0.253,-0.153c-0.141,-0.233 -0.413,-0.328 -0.696,-0.328c-0.286,0.001 -0.612,0.097 -0.916,0.281l0.153,0.253Z" style="fill:#fff;fill-rule:nonzero;"/><path id="path6_stroke" d="M12.756,13.951c0.042,0.07 0.133,0.092 0.203,0.05c0.07,-0.042 0.092,-0.133 0.05,-0.203l-0.253,0.153Zm-0.474,-1.355c-0.042,-0.07 -0.133,-0.092 -0.203,-0.05c-0.069,0.043 -0.092,0.133 -0.05,0.203l0.253,-0.153Zm0.727,1.202l-0.727,-1.202l-0.253,0.153l0.727,1.202l0.253,-0.153Z" style="fill:#fff;fill-rule:nonzero;"/><path id="path7_stroke" d="M11.488,13.842c-0.07,0.042 -0.092,0.133 -0.05,0.203c0.042,0.07 0.133,0.092 0.203,0.05l-0.153,-0.253Zm2.05,-0.895c0.07,-0.042 0.092,-0.133 0.05,-0.203c-0.042,-0.07 -0.133,-0.092 -0.203,-0.05l0.153,0.253Zm-1.897,1.148l1.897,-1.148l-0.153,-0.253l-1.897,1.148l0.153,0.253Z" style="fill:#fff;fill-rule:nonzero;"/><path id="path8_stroke" d="M11.951,14.092c-0.038,0.072 -0.01,0.161 0.062,0.199c0.073,0.038 0.162,0.01 0.2,-0.062l-0.262,-0.137Zm1.157,-1.572c0.038,-0.073 0.01,-0.162 -0.062,-0.2c-0.073,-0.038 -0.162,-0.01 -0.2,0.062l0.262,0.138Zm-0.895,1.709l0.895,-1.709l-0.262,-0.138l-0.895,1.71l0.262,0.137Z" style="fill:#fff;fill-rule:nonzero;"/><path id="path9_stroke" d="M11.49,13.194c-0.081,0 -0.147,0.067 -0.147,0.148c0,0.082 0.066,0.148 0.148,0.148l-0.001,-0.296Zm1.948,0.292c0.082,0 0.148,-0.067 0.148,-0.148c0,-0.082 -0.066,-0.148 -0.148,-0.148l0,0.296Zm-1.947,0.004l1.947,-0.004l0,-0.296l-1.948,0.004l0.001,0.296Z" style="fill:#fff;fill-rule:nonzero;"/><path id="path10_stroke" d="M13.683,12.596c-0.043,-0.07 -0.134,-0.092 -0.203,-0.05c-0.07,0.043 -0.092,0.134 -0.05,0.204l0.253,-0.154Zm-0.445,1.773l0.082,0.123l0,0l-0.082,-0.123Zm-1.631,-0.538c-0.051,-0.064 -0.144,-0.075 -0.208,-0.025c-0.064,0.051 -0.075,0.144 -0.024,0.208l0.232,-0.183Zm1.95,-1.158c-0.127,0.077 -0.127,0.077 -0.127,0.077c0,-0.001 0,-0.001 0,-0.001c0,0 0,0 0,0c0,0 0,0 0,0c0,0.001 0,0.001 0.001,0.002c0.001,0.001 0.002,0.003 0.004,0.007c0.004,0.007 0.009,0.016 0.016,0.03c0.015,0.028 0.034,0.066 0.054,0.116c0.044,0.104 0.088,0.237 0.106,0.394c0.035,0.302 -0.031,0.666 -0.455,0.948l0.164,0.246c0.537,-0.358 0.63,-0.843 0.584,-1.228c-0.022,-0.187 -0.078,-0.359 -0.126,-0.473c-0.024,-0.058 -0.048,-0.108 -0.065,-0.14c-0.008,-0.017 -0.016,-0.03 -0.021,-0.039c-0.003,-0.005 -0.005,-0.009 -0.006,-0.011c-0.001,-0.001 -0.002,-0.003 -0.002,-0.003l-0.001,-0.002c0,0 0,0 -0.126,0.077Zm-0.401,1.573c-0.393,0.262 -0.765,0.172 -1.06,0c-0.15,-0.087 -0.269,-0.188 -0.358,-0.274c-0.043,-0.042 -0.076,-0.077 -0.099,-0.104c-0.011,-0.012 -0.019,-0.022 -0.025,-0.029c-0.003,-0.003 -0.005,-0.005 -0.006,-0.007c-0.001,-0.001 -0.001,-0.001 -0.001,-0.001c0,0 0,0 0,0c0,0 0,0 0,0c0,0 0,0 0,0c0,0 0,0 -0.116,0.091c-0.116,0.092 -0.116,0.092 -0.116,0.092l0.001,0.002c0,0 0.001,0.001 0.002,0.003c0.002,0.002 0.005,0.005 0.009,0.01c0.007,0.008 0.018,0.021 0.031,0.036c0.026,0.029 0.066,0.072 0.115,0.119c0.096,0.093 0.242,0.217 0.415,0.318c0.351,0.204 0.852,0.337 1.372,-0.01l-0.164,-0.246Z" style="fill:#fff;fill-rule:nonzero;"/></g><g id="Page-12"><path id="path11_stroke" d="M17.099,18.913c-0.033,0.075 0,0.162 0.075,0.195c0.074,0.034 0.162,0 0.195,-0.074l-0.27,-0.121Zm0.547,-0.502c0.033,-0.075 0,-0.162 -0.075,-0.196c-0.074,-0.033 -0.162,0.001 -0.195,0.075l0.27,0.121Zm-0.277,0.623l0.277,-0.623l-0.27,-0.121l-0.277,0.623l0.27,0.121Z" style="fill:#fff;fill-rule:nonzero;"/><path id="path12_stroke" d="M18.143,16.205l0.061,-0.135c-0.075,-0.033 -0.162,0 -0.196,0.075l0.135,0.06Zm0.658,0.293l0.135,0.06c0.033,-0.075 0,-0.162 -0.075,-0.195l-0.06,0.135Zm-0.918,2.062l-0.06,0.135c0.074,0.033 0.161,0 0.195,-0.075l-0.135,-0.06Zm-0.658,-0.293l-0.135,-0.06c-0.016,0.036 -0.017,0.077 -0.003,0.113c0.014,0.037 0.042,0.066 0.078,0.082l0.06,-0.135Zm0.858,-1.927l0.658,0.293l0.12,-0.27l-0.657,-0.293l-0.121,0.27Zm0.583,0.098l-0.918,2.062l0.27,0.12l0.918,-2.062l-0.27,-0.12Zm-0.723,1.987l-0.658,-0.293l-0.12,0.27l0.658,0.293l0.12,-0.27Zm-0.583,-0.098l0.918,-2.062l-0.27,-0.12l-0.918,2.062l0.27,0.12Z" style="fill:#fff;fill-rule:nonzero;"/><path id="path13_stroke" d="M18.291,16.237c-0.033,0.074 0,0.161 0.075,0.195c0.075,0.033 0.162,-0.001 0.195,-0.075l-0.27,-0.12Zm0.408,-0.189c0.033,-0.075 -0.001,-0.162 -0.075,-0.195c-0.075,-0.034 -0.162,0 -0.195,0.074l0.27,0.121Zm-0.138,0.309l0.138,-0.309l-0.27,-0.121l-0.138,0.31l0.27,0.12Z" style="fill:#fff;fill-rule:nonzero;"/><path id="path14_stroke" d="M17.941,16.36c-0.068,-0.046 -0.16,-0.029 -0.205,0.039c-0.046,0.067 -0.029,0.159 0.039,0.205l0.166,-0.244Zm0.719,0.76c0.079,0.02 0.159,-0.028 0.179,-0.107c0.02,-0.079 -0.027,-0.16 -0.107,-0.18l-0.072,0.287Zm-0.802,-0.638c-0.083,0.122 -0.083,0.122 -0.083,0.122l0.002,0.002c0.001,0.001 0.003,0.002 0.006,0.004c0.005,0.003 0.012,0.008 0.021,0.014c0.019,0.013 0.046,0.031 0.079,0.052c0.065,0.043 0.155,0.102 0.249,0.162c0.095,0.059 0.198,0.122 0.287,0.172c0.084,0.047 0.175,0.093 0.241,0.11l0.072,-0.287c-0.022,-0.005 -0.079,-0.032 -0.169,-0.082c-0.084,-0.047 -0.18,-0.105 -0.273,-0.163c-0.093,-0.059 -0.18,-0.116 -0.244,-0.158c-0.032,-0.022 -0.059,-0.039 -0.077,-0.051c-0.009,-0.006 -0.016,-0.011 -0.021,-0.014l-0.007,-0.005c0,0 0,0 -0.083,0.122Z" style="fill:#fff;fill-rule:nonzero;"/><path id="path15_stroke" d="M17.458,17.279c-0.066,-0.049 -0.158,-0.035 -0.207,0.03c-0.049,0.066 -0.035,0.158 0.03,0.207l0.177,-0.237Zm0.738,0.796c0.076,0.03 0.161,-0.009 0.19,-0.085c0.029,-0.076 -0.009,-0.162 -0.085,-0.191l-0.105,0.276Zm-0.827,-0.677c-0.088,0.118 -0.088,0.118 -0.088,0.118l0.002,0.002c0.001,0 0.003,0.002 0.005,0.003c0.004,0.004 0.011,0.008 0.019,0.014c0.016,0.012 0.04,0.029 0.069,0.05c0.058,0.042 0.141,0.099 0.232,0.16c0.182,0.122 0.416,0.264 0.588,0.33l0.105,-0.276c-0.146,-0.055 -0.351,-0.182 -0.529,-0.3c-0.089,-0.059 -0.167,-0.114 -0.224,-0.154c-0.028,-0.021 -0.051,-0.037 -0.067,-0.048c-0.007,-0.006 -0.013,-0.01 -0.017,-0.013c-0.002,-0.002 -0.004,-0.003 -0.005,-0.004l-0.001,-0.001c0,0 0,0 0,0c0,0 0,0 -0.089,0.119Z" style="fill:#fff;fill-rule:nonzero;"/></g><g id="Page-13"><path id="path16_stroke" d="M6.612,8.321c-0.009,-0.081 -0.081,-0.14 -0.163,-0.131c-0.081,0.008 -0.14,0.081 -0.131,0.162l0.294,-0.031Zm0.001,1.42l-0.147,0.016c0.008,0.075 0.071,0.132 0.147,0.132l0,-0.148Zm1.034,0l0,0.148c0.077,0 0.141,-0.059 0.148,-0.135l-0.148,-0.013Zm0.271,-1.416c0.007,-0.081 -0.053,-0.153 -0.135,-0.16c-0.081,-0.007 -0.153,0.053 -0.16,0.134l0.295,0.026Zm-1.6,0.027l0.148,1.405l0.294,-0.031l-0.148,-1.405l-0.294,0.031Zm0.295,1.537l1.034,0l0,-0.296l-1.034,0l0,0.296Zm1.182,-0.135l0.123,-1.429l-0.295,-0.026l-0.123,1.429l0.295,0.026Z" style="fill:#fff;fill-rule:nonzero;"/><path id="path17_stroke" d="M7.606,8.214c-0.051,0.064 -0.041,0.157 0.023,0.208c0.064,0.05 0.157,0.04 0.208,-0.024l-0.231,-0.184Zm0.52,-0.179c0.051,-0.064 0.041,-0.157 -0.023,-0.208c-0.064,-0.051 -0.157,-0.04 -0.208,0.024l0.231,0.184Zm-0.289,0.363l0.289,-0.363l-0.231,-0.184l-0.289,0.363l0.231,0.184Z" style="fill:#fff;fill-rule:nonzero;"/><path id="path18_stroke" d="M6.286,7.926c-0.05,-0.065 -0.143,-0.076 -0.207,-0.026c-0.065,0.05 -0.076,0.143 -0.026,0.207l0.233,-0.181Zm0.142,0.423l-0.117,0.091c0.028,0.036 0.071,0.057 0.117,0.057l0,-0.148Zm1.269,0.148c0.081,0 0.147,-0.066 0.147,-0.148c0,-0.081 -0.066,-0.148 -0.147,-0.148l0,0.296Zm-1.644,-0.39l0.258,0.333l0.234,-0.182l-0.259,-0.332l-0.233,0.181Zm0.375,0.39l1.269,0l0,-0.296l-1.269,0l0,0.296Z" style="fill:#fff;fill-rule:nonzero;"/><path id="path19_stroke" d="M7.142,8.254c-0.032,0.075 0.003,0.162 0.078,0.194c0.075,0.032 0.162,-0.002 0.194,-0.077l-0.272,-0.117Zm1.097,-1.805c0.032,-0.075 -0.002,-0.162 -0.077,-0.194c-0.075,-0.032 -0.162,0.002 -0.195,0.077l0.272,0.117Zm-0.825,1.922l0.825,-1.922l-0.272,-0.117l-0.825,1.922l0.272,0.117Z" style="fill:#fff;fill-rule:nonzero;"/><path id="path20_stroke" d="M6.988,8.27c-0.023,0.078 0.022,0.161 0.1,0.184c0.078,0.023 0.161,-0.021 0.184,-0.1l-0.284,-0.084Zm0.789,-1.616c0.023,-0.078 -0.022,-0.16 -0.1,-0.183c-0.078,-0.024 -0.16,0.021 -0.184,0.099l0.284,0.084Zm-0.505,1.7l0.505,-1.7l-0.284,-0.084l-0.505,1.7l0.284,0.084Z" style="fill:#fff;fill-rule:nonzero;"/></g><g id="Page-14"><path id="path21_stroke" d="M6.391,28.282l-0.141,-0.043c-0.014,0.045 -0.006,0.093 0.022,0.131c0.028,0.037 0.072,0.06 0.119,0.06l0,-0.148Zm1.988,0l0,0.148c0.047,0 0.091,-0.023 0.119,-0.06c0.028,-0.038 0.036,-0.087 0.022,-0.132l-0.141,0.044Zm-1.988,0.148l1.988,0l0,-0.296l-1.988,0l0,0.296Zm1.988,-0.148c0.141,-0.044 0.141,-0.044 0.141,-0.044l0,-0.001c0,-0.001 -0.001,-0.002 -0.001,-0.003c-0.001,-0.002 -0.002,-0.005 -0.003,-0.008c-0.002,-0.006 -0.006,-0.016 -0.01,-0.027c-0.008,-0.021 -0.022,-0.053 -0.04,-0.089c-0.034,-0.069 -0.095,-0.17 -0.179,-0.266c-0.174,-0.196 -0.461,-0.39 -0.903,-0.39l0,0.296c0.344,0 0.555,0.146 0.682,0.29c0.066,0.074 0.107,0.143 0.136,0.202c0.014,0.027 0.022,0.047 0.029,0.064c0.003,0.008 0.004,0.012 0.006,0.016c0,0.002 0,0.003 0.001,0.003c0,0.001 0,0.001 0,0.001c0,0 0,-0.001 0,-0.001c0,0.001 0,0 0,0c0,0 0,0 0,0c0,0 0,0 0.141,-0.043Zm-0.995,-0.828c-0.443,0 -0.729,0.194 -0.902,0.39c-0.084,0.096 -0.145,0.197 -0.179,0.266c-0.018,0.036 -0.032,0.069 -0.039,0.089c-0.005,0.011 -0.008,0.021 -0.01,0.027c-0.001,0.004 -0.003,0.007 -0.003,0.008c0,0.002 -0.001,0.003 -0.001,0.003l0,0.002c0,0 0,0 0.141,0.043c0.141,0.043 0.141,0.043 0.141,0.043c0,0 0,0 0,0c0,0 0,0 0,0c0,0 0,0 0,0c0,0 0,0 0,0c0.001,-0.001 0.001,-0.001 0.001,-0.003c0.002,-0.004 0.003,-0.009 0.006,-0.016c0.007,-0.017 0.015,-0.037 0.029,-0.065c0.029,-0.059 0.069,-0.127 0.135,-0.201c0.127,-0.144 0.337,-0.29 0.681,-0.29l0,-0.296Z" style="fill:#fff;fill-rule:nonzero;"/><path id="path22_stroke" d="M6.169,28.933c-0.081,0 -0.148,0.066 -0.148,0.147c0,0.082 0.067,0.148 0.148,0.148l0,-0.295Zm2.226,0.295c0.082,0 0.148,-0.066 0.148,-0.148c0,-0.081 -0.066,-0.147 -0.148,-0.147l0,0.295Zm-2.226,0l2.226,0l0,-0.295l-2.226,0l0,0.295Z" style="fill:#fff;fill-rule:nonzero;"/><path id="path23_stroke" d="M6.317,29.45l0,-0.148c-0.082,0 -0.148,0.066 -0.148,0.148l0.148,0Zm2.059,0l0.148,0.004c0.001,-0.04 -0.014,-0.078 -0.042,-0.107c-0.028,-0.029 -0.066,-0.045 -0.106,-0.045l0,0.148Zm-1.934,0.379l-0.115,0.092c0.028,0.035 0.07,0.056 0.115,0.056l0,-0.148Zm-0.125,-0.231l2.059,0l0,-0.296l-2.059,0l0,0.296Zm2.059,-0.148c-0.148,-0.004 -0.148,-0.005 -0.148,-0.005c0,0 0,0 0,0c0,0 0,0 0,0c0,0 0,0 0,0c0,0 0,0 0,0c0,0.001 0,0.001 0,0.002c0,0.002 0,0.004 -0.001,0.008c0,0.01 -0.001,0.02 -0.003,0.035c-0.004,0.032 -0.01,0.066 -0.023,0.103c-0.028,0.085 -0.055,0.088 -0.064,0.088l0,0.296c0.218,0 0.311,-0.187 0.345,-0.291c0.019,-0.058 0.03,-0.119 0.035,-0.158c0.003,-0.021 0.004,-0.039 0.005,-0.051c0.001,-0.006 0.001,-0.012 0.001,-0.015c0,-0.002 0,-0.004 0.001,-0.005l0,-0.003c0,0 0,0 -0.148,-0.004Zm-0.239,0.231l-1.695,0l0,0.296l1.695,0l0,-0.296Zm-1.695,0.148c0.116,-0.092 0.116,-0.092 0.116,-0.092c0,0 0,0 0,0c0,0 0,0 0,0c0,0 0,0 0,0c0,0 0.001,0 0.001,0c0,0 0,0.001 -0.001,0c0,0 0,-0.001 -0.001,-0.002c-0.003,-0.004 -0.006,-0.008 -0.01,-0.014c-0.01,-0.016 -0.021,-0.034 -0.033,-0.061c-0.028,-0.059 -0.051,-0.123 -0.049,-0.21l-0.296,0c0.002,0.134 0.042,0.26 0.077,0.335c0.019,0.04 0.039,0.075 0.052,0.096c0.008,0.011 0.015,0.021 0.019,0.027c0.003,0.004 0.005,0.007 0.006,0.008c0.001,0.001 0.002,0.003 0.002,0.003l0.002,0.002c0,0 0,0 0.115,-0.092Z" style="fill:#fff;fill-rule:nonzero;"/><path id="path24_stroke" d="M6.294,28.5c-0.077,-0.028 -0.162,0.011 -0.19,0.088c-0.028,0.077 0.012,0.162 0.089,0.19l0.101,-0.278Zm1.113,0.564l-0.05,0.139c0.035,0.013 0.075,0.011 0.109,-0.004l-0.059,-0.135Zm0.973,-0.425l0.06,0.135c0.064,-0.028 0.099,-0.097 0.085,-0.165c-0.014,-0.069 -0.074,-0.118 -0.144,-0.118l-0.001,0.148Zm-2.135,-0.15c-0.082,0 -0.148,0.066 -0.148,0.148c0,0.081 0.066,0.148 0.148,0.148l0,-0.296Zm-0.052,0.289l1.164,0.425l0.101,-0.278l-1.164,-0.425l-0.101,0.278Zm1.273,0.421l0.974,-0.425l-0.119,-0.271l-0.973,0.425l0.118,0.271Zm0.915,-0.708l-2.136,-0.002l0,0.296l2.135,0.002l0.001,-0.296Z" style="fill:#fff;fill-rule:nonzero;"/></g><g id="Page-15"><path id="path25_stroke" d="M10.251,23.355c0.047,-0.067 0.03,-0.159 -0.037,-0.205c-0.068,-0.047 -0.16,-0.03 -0.206,0.038l0.243,0.167Zm-0.307,-1.118c0.055,0.061 0.149,0.066 0.209,0.011c0.061,-0.055 0.065,-0.149 0.011,-0.209l-0.22,0.198Zm0.064,0.951c-0.139,0.201 -0.37,0.332 -0.632,0.332l0,0.296c0.363,0 0.684,-0.183 0.875,-0.461l-0.243,-0.167Zm-0.632,0.332c-0.424,0 -0.768,-0.344 -0.768,-0.767l-0.295,0c0,0.587 0.475,1.063 1.063,1.063l0,-0.296Zm-0.768,-0.767c0,-0.424 0.344,-0.768 0.768,-0.768l0,-0.295c-0.588,0 -1.063,0.476 -1.063,1.063l0.295,0Zm0.768,-0.768c0.225,0 0.428,0.097 0.568,0.252l0.22,-0.198c-0.195,-0.214 -0.476,-0.349 -0.788,-0.349l0,0.295Z" style="fill:#fff;fill-rule:nonzero;"/><path id="path26_stroke" d="M9.705,21.444c0.069,-0.045 0.088,-0.136 0.044,-0.205c-0.045,-0.068 -0.136,-0.087 -0.205,-0.043l0.161,0.248Zm-0.505,0.417c0,0.081 0.066,0.148 0.147,0.148c0.082,0 0.148,-0.067 0.148,-0.148l-0.295,0Zm0.425,-0.541c-0.081,-0.124 -0.081,-0.124 -0.081,-0.124l-0.001,0.001c0,0 -0.001,0 -0.001,0.001c-0.001,0 -0.003,0.002 -0.005,0.003c-0.002,0.002 -0.007,0.005 -0.012,0.009c-0.009,0.006 -0.025,0.018 -0.04,0.032c-0.03,0.026 -0.075,0.07 -0.116,0.123c-0.077,0.101 -0.165,0.281 -0.169,0.496l0.295,0c-0.004,-0.146 0.047,-0.237 0.108,-0.316c0.028,-0.037 0.052,-0.06 0.075,-0.079c0.01,-0.009 0.017,-0.014 0.023,-0.019c0.002,-0.002 0.003,-0.002 0.005,-0.003c0,-0.001 0,-0.001 0,-0.001c0,0 0,0.001 0,0.001c0,-0.001 0,0 0,0c0,0 -0.001,0 -0.001,0c0,0 0,0 0,0c0,0 0,0 -0.08,-0.124Z" style="fill:#fff;fill-rule:nonzero;"/><path id="path27_stroke" d="M10.116,23.377c0.078,0.022 0.16,-0.024 0.182,-0.103c0.022,-0.078 -0.024,-0.16 -0.103,-0.182l-0.079,0.285Zm-0.044,-0.489l0.104,0.104c0.039,-0.038 0.053,-0.095 0.037,-0.148c-0.016,-0.052 -0.06,-0.091 -0.114,-0.101l-0.027,0.145Zm-0.12,-0.388l0.116,0.092c0.038,-0.048 0.043,-0.115 0.011,-0.168l-0.127,0.076Zm0.145,-0.222c0.08,-0.016 0.132,-0.094 0.116,-0.174c-0.017,-0.08 -0.095,-0.132 -0.175,-0.116l0.059,0.29Zm0.058,0.956c0.04,-0.142 0.04,-0.142 0.04,-0.142c0,0 0,0 0,0c0,0 0,0 0,0c0,0 0.001,0 0.001,0c0,0 0,0 0,0c0,0 0,0 -0.001,0c-0.001,0 -0.002,-0.001 -0.005,-0.002c-0.007,-0.002 -0.012,-0.004 -0.021,-0.008c-0.022,-0.01 -0.033,-0.015 -0.043,-0.028c-0.013,-0.011 0.006,0.006 -0.001,0.008c0,0.004 0.001,-0.019 0.051,-0.07l-0.208,-0.209c-0.076,0.076 -0.129,0.16 -0.137,0.252c-0.009,0.098 0.034,0.174 0.081,0.223c0.042,0.042 0.099,0.076 0.133,0.092c0.018,0.008 0.037,0.016 0.047,0.019c0.006,0.003 0.012,0.004 0.016,0.005c0.001,0.001 0.004,0.002 0.005,0.002l0.002,0.001l0,0c0,0 0.001,0 0.04,-0.143Zm-0.083,-0.346c0.027,-0.145 0.027,-0.145 0.027,-0.145c0,0 0,0 0,0c0,0 0.001,0 0,0c0,0 0.001,0 0.001,0c0,0 0,0 0,0c0,0 0,0 0,0c-0.002,-0.001 -0.003,-0.001 -0.006,-0.002c-0.008,-0.002 -0.014,-0.004 -0.025,-0.008c-0.024,-0.008 -0.037,-0.013 -0.051,-0.028c-0.007,-0.007 -0.005,-0.008 -0.005,-0.008c0,-0.006 0.003,-0.039 0.055,-0.105l-0.232,-0.183c-0.074,0.093 -0.118,0.188 -0.119,0.285c-0.001,0.102 0.046,0.178 0.1,0.228c0.048,0.042 0.112,0.075 0.15,0.089c0.02,0.007 0.041,0.013 0.052,0.016c0.007,0.002 0.014,0.004 0.017,0.004c0.002,0.001 0.005,0.001 0.006,0.002l0.002,0l0.001,0c0,0 0,0 0.027,-0.145Zm-0.12,-0.388c0.127,-0.076 0.127,-0.076 0.127,-0.076c0,0 0,0 0,0c0,0 0,0 0,0c0,0 0,0.001 0,0c0,0 0,0.001 0,0.001c0,-0.001 0,-0.001 0,-0.001c-0.001,-0.002 -0.002,-0.003 -0.003,-0.006c-0.004,-0.007 -0.007,-0.014 -0.012,-0.025c-0.011,-0.024 -0.018,-0.043 -0.02,-0.069c-0.001,-0.013 -0.002,-0.013 0.001,-0.022c0.001,-0.008 -0.003,0 0.001,-0.004c0.003,-0.006 -0.003,0 0.006,-0.005c0.013,-0.008 0.019,-0.01 0.045,-0.015l-0.059,-0.29c-0.102,0.021 -0.186,0.068 -0.238,0.146c-0.051,0.076 -0.056,0.158 -0.05,0.221c0.007,0.058 0.027,0.12 0.042,0.154c0.008,0.019 0.017,0.037 0.022,0.047c0.003,0.005 0.006,0.011 0.008,0.014c0.001,0.001 0.002,0.003 0.002,0.004l0.002,0.003c0,0 0,0 0.126,-0.077Z" style="fill:#fff;fill-rule:nonzero;"/></g><g id="Page-16"><path id="path28_stroke" d="M2.548,19.325l0,-0.148c-0.039,0 -0.077,0.015 -0.105,0.043c-0.027,0.028 -0.043,0.065 -0.043,0.105l0.148,0Zm2.636,0l0.105,-0.105c-0.042,-0.042 -0.106,-0.055 -0.161,-0.032c-0.056,0.023 -0.092,0.077 -0.092,0.137l0.148,0Zm-1.547,1.017l0,-0.148c-0.003,0 -0.005,0.001 -0.007,0.001l0.007,0.147Zm-1.089,-1.017c-0.001,0.147 -0.001,0.147 -0.001,0.147l0.008,0c0.005,0 0.012,0 0.022,0c0.019,0.001 0.048,0.001 0.084,0.001c0.072,0 0.176,0 0.3,0.001c0.248,0.001 0.578,0.002 0.908,0.002c0.331,0.001 0.661,0.001 0.908,0.001c0.123,-0.001 0.226,-0.001 0.298,-0.002c0.036,0 0.065,-0.001 0.085,-0.001c0.01,0 0.02,-0.001 0.026,-0.001c0.004,0 0.011,-0.001 0.016,-0.002c0.005,0 0.018,-0.003 0.026,-0.005c0.002,-0.001 0.031,-0.009 0.058,-0.034c0.016,-0.018 0.041,-0.07 0.046,-0.104c-0.004,-0.035 -0.028,-0.089 -0.043,-0.108l-0.21,0.209c-0.016,-0.019 -0.039,-0.073 -0.043,-0.108c0.005,-0.034 0.03,-0.086 0.046,-0.103c0.027,-0.026 0.056,-0.034 0.057,-0.034c0.013,-0.004 0.024,-0.006 0.024,-0.006c-0.003,0.001 0.006,0 0.005,0c-0.003,0 -0.007,0 -0.016,0c-0.018,0.001 -0.045,0.001 -0.08,0.002c-0.071,0 -0.173,0.001 -0.296,0.001c-0.246,0 -0.576,0 -0.906,0c-0.33,-0.001 -0.66,-0.002 -0.908,-0.003c-0.124,0 -0.228,-0.001 -0.3,-0.001c-0.036,0 -0.065,0 -0.084,0c-0.01,0 -0.017,0 -0.022,0l-0.007,0c0,0 0,0 0,0c-0.001,0 -0.001,0 -0.001,0c0,0 0,0 0,0.148Zm2.488,0c0,0.344 -0.129,0.556 -0.286,0.684c-0.162,0.133 -0.364,0.185 -0.513,0.185l0,0.296c0.208,0 0.479,-0.07 0.701,-0.252c0.228,-0.187 0.394,-0.484 0.394,-0.913l-0.296,0Zm-0.799,0.869l-0.6,0l0,0.296l0.6,0l0,-0.296Zm-0.6,0.148c-0.007,-0.147 -0.007,-0.147 -0.007,-0.147c0,0 0,0 0,0c0,0 0,0 0,0c0,0 0,0 0,0c0,0 0,0 -0.001,0c-0.002,0 -0.003,0 -0.007,0c-0.007,0 -0.016,0 -0.029,0c-0.027,-0.001 -0.063,-0.003 -0.109,-0.008c-0.096,-0.011 -0.211,-0.033 -0.332,-0.088c-0.124,-0.054 -0.228,-0.124 -0.313,-0.249c-0.082,-0.118 -0.143,-0.285 -0.143,-0.525l-0.296,0c0,0.293 0.075,0.521 0.197,0.694c0.119,0.166 0.287,0.284 0.435,0.35c0.152,0.067 0.31,0.099 0.417,0.111c0.056,0.007 0.106,0.009 0.138,0.01c0.016,0.001 0.031,0.001 0.04,0c0.004,0 0.009,0 0.011,0c0.002,0 0.003,0 0.004,0l0.001,0c0,0 0,0 0.001,0c0,0 0,0 -0.007,-0.148Z" style="fill:#fff;fill-rule:nonzero;"/><path id="path29_fill" d="M3.116,19.093c-0.068,0 -0.122,-0.055 -0.122,-0.122c0,-0.066 -0.031,-0.111 -0.084,-0.185c-0.062,-0.086 -0.14,-0.194 -0.14,-0.365l0,-0.051c0,-0.171 0.078,-0.278 0.14,-0.365c0.053,-0.074 0.084,-0.119 0.084,-0.184c0,-0.068 0.054,-0.122 0.122,-0.122c0.067,0 0.122,0.054 0.122,0.122c0,0.148 -0.072,0.247 -0.13,0.327c-0.053,0.073 -0.094,0.13 -0.094,0.222l0,0.051c0,0.092 0.041,0.149 0.094,0.222c0.058,0.08 0.13,0.18 0.13,0.328c0,0.067 -0.055,0.122 -0.122,0.122Z" style="fill:#fff;"/><path id="path30_fill" d="M4.668,19.093c-0.068,0 -0.122,-0.055 -0.122,-0.122c0,-0.066 -0.031,-0.111 -0.084,-0.185c-0.062,-0.086 -0.14,-0.194 -0.14,-0.365l0,-0.051c0,-0.171 0.078,-0.278 0.14,-0.365c0.053,-0.074 0.084,-0.119 0.084,-0.184c0,-0.068 0.054,-0.122 0.122,-0.122c0.067,0 0.122,0.054 0.122,0.122c0,0.148 -0.072,0.247 -0.13,0.327c-0.053,0.073 -0.094,0.13 -0.094,0.222l0,0.051c0,0.092 0.041,0.149 0.094,0.222c0.058,0.08 0.13,0.18 0.13,0.328c0,0.067 -0.055,0.122 -0.122,0.122Z" style="fill:#fff;"/><path id="path31_fill" d="M3.929,19.093c-0.068,0 -0.122,-0.055 -0.122,-0.122c0,-0.066 -0.031,-0.111 -0.084,-0.185c-0.062,-0.086 -0.14,-0.194 -0.14,-0.365l0,-0.051c0,-0.171 0.078,-0.278 0.14,-0.365c0.053,-0.074 0.084,-0.119 0.084,-0.184c0,-0.068 0.054,-0.122 0.122,-0.122c0.067,0 0.122,0.054 0.122,0.122c0,0.148 -0.072,0.247 -0.13,0.327c-0.053,0.073 -0.094,0.13 -0.094,0.222l0,0.051c0,0.092 0.041,0.149 0.094,0.222c0.058,0.08 0.13,0.18 0.13,0.328c0,0.067 -0.055,0.122 -0.122,0.122Z" style="fill:#fff;"/></g><path id="path32_stroke" d="M15.925,26.096l-0.148,-0.001c0,0.04 0.016,0.079 0.045,0.107c0.028,0.028 0.067,0.043 0.107,0.042l-0.004,-0.148Zm1.058,0l-0.003,0.148c0.04,0.001 0.078,-0.014 0.106,-0.042c0.029,-0.028 0.045,-0.066 0.045,-0.106l-0.148,0Zm0,-1.921l-0.148,-0.004c0,0.002 0,0.003 0,0.004l0.148,0Zm-0.33,-0.694l-0.148,0c0,0.082 0.066,0.148 0.148,0.148l0,-0.148Zm0,-0.313l0.148,0c0,-0.082 -0.066,-0.148 -0.148,-0.148l0,0.148Zm-0.372,0l0,-0.148c-0.082,0 -0.148,0.066 -0.148,0.148l0.148,0Zm0,0.313l0.007,0.148c0.079,-0.004 0.14,-0.069 0.14,-0.148l-0.147,0Zm-0.356,2.615c0.004,0.148 0.004,0.148 0.004,0.148l0,0c0,0 0,0 0,0c0,0 0,0 0,0c0.001,0 0.002,0 0.003,0c0.002,0 0.005,0 0.009,0c0.009,-0.001 0.021,-0.001 0.036,-0.001c0.031,-0.001 0.075,-0.002 0.125,-0.002c0.102,-0.002 0.232,-0.004 0.348,-0.004l0,-0.295c-0.118,0 -0.25,0.001 -0.352,0.003c-0.052,0.001 -0.096,0.002 -0.127,0.002c-0.015,0.001 -0.028,0.001 -0.036,0.001c-0.004,0 -0.008,0 -0.01,0l-0.003,0l0,0c0,0 0,0 0.003,0.148Zm0.525,0.141c0.117,0 0.249,0.002 0.352,0.004c0.052,0 0.096,0.001 0.128,0.002c0.016,0 0.028,0 0.037,0.001c0.004,0 0.007,0 0.009,0l0.004,0l0,0c0,0 0,0 0.003,-0.148l0.003,-0.148c0,0 0,0 0,0c0,0 0,0 0,0c0,0 0,0 0,0c0,0 0,0 0,0c-0.001,0 -0.002,0 -0.003,0c-0.002,0 -0.006,0 -0.01,0c-0.009,0 -0.021,0 -0.037,-0.001c-0.032,0 -0.077,-0.001 -0.129,-0.002c-0.104,-0.002 -0.239,-0.003 -0.357,-0.003l0,0.295Zm0.681,-0.141l0,-1.921l-0.296,0l0,1.921l0.296,0Zm-0.148,-1.921c0.148,0.004 0.148,0.003 0.148,0.003l0,-0.003c0,-0.001 0,-0.004 0,-0.007c0,-0.005 0,-0.014 0,-0.025c0,-0.02 -0.001,-0.05 -0.003,-0.085c-0.004,-0.068 -0.014,-0.167 -0.036,-0.263c-0.021,-0.095 -0.063,-0.209 -0.121,-0.292c-0.068,-0.094 -0.173,-0.17 -0.318,-0.17l0,0.296c0.028,0 0.052,0.01 0.078,0.047c0.036,0.047 0.056,0.106 0.073,0.184c0.018,0.078 0.025,0.153 0.029,0.215c0.002,0.03 0.002,0.054 0.002,0.072c0,0.008 0,0.014 0,0.019c0,0.002 0,0.003 0,0.005c0,0 0,0 0,0c0,0.001 0,0.001 0,0.001c0,0 0,-0.001 0,-0.001c0,0 0,0 0,0c0,0 0,0 0.148,0.004Zm-0.182,-0.694l0,-0.313l-0.296,0l0,0.313l0.296,0Zm-0.148,-0.461l-0.372,0l0,0.296l0.372,0l0,-0.296Zm-0.52,0.148l0,0.313l0.295,0l0,-0.313l-0.295,0Zm0.148,0.313c-0.008,-0.148 -0.008,-0.148 -0.008,-0.148l-0.002,0c-0.001,0 -0.002,0.001 -0.003,0.001c-0.001,0 -0.005,0 -0.008,0c-0.004,0.001 -0.013,0.002 -0.021,0.004c-0.013,0.002 -0.039,0.008 -0.063,0.017c-0.042,0.016 -0.113,0.054 -0.173,0.112c-0.123,0.123 -0.217,0.336 -0.217,0.691l0.295,0c0,-0.305 0.08,-0.431 0.131,-0.482c0.026,-0.028 0.042,-0.035 0.065,-0.043c0.008,-0.004 0.01,-0.004 0.016,-0.005c0.001,0 0.001,0 0,0c0.001,0 -0.002,0 -0.002,0c0.001,0 -0.001,0 -0.001,0c0,0 -0.001,0.001 -0.001,0.001c0,0 -0.001,0 -0.001,0c0,0 0,0 0,0c0,0 0,0 -0.007,-0.148Zm-0.495,0.677c0,0.22 -0.002,0.704 -0.004,1.133c-0.001,0.215 -0.003,0.416 -0.003,0.563c-0.001,0.074 -0.001,0.134 -0.001,0.176c0,0.021 0,0.037 -0.001,0.048l0,0.017c0,0 0,0 0,0c0,0 0,0 0,0c0,0 0,0 0.148,0.001c0.148,0.001 0.148,0.001 0.148,0.001l0,-0.017c0,-0.011 0,-0.027 0,-0.048c0.001,-0.042 0.001,-0.102 0.001,-0.176c0.001,-0.147 0.002,-0.348 0.003,-0.563c0.002,-0.43 0.004,-0.915 0.004,-1.135l-0.295,0Z" style="fill:#fff;fill-rule:nonzero;"/></g><g><clipPath id="_clip1"><rect id="healthy_right" x="52.018" y="4.691" width="15.048" height="25.807"/></clipPath><g clip-path="url(#_clip1)"><g id="Group-2"><g id="Page-17"><path id="path0_stroke1" d="M54.952,27.882l-0.025,-0.148c-0.059,0.01 -0.107,0.054 -0.121,0.113c-0.014,0.058 0.008,0.119 0.055,0.155l0.091,-0.12Zm0.691,0.524l-0.091,0.12c0.039,0.03 0.091,0.038 0.138,0.023c0.047,-0.016 0.084,-0.054 0.097,-0.102l-0.144,-0.041Zm0.428,0.048l-0.15,0c0,0.058 0.034,0.112 0.087,0.136c0.053,0.025 0.116,0.016 0.161,-0.022l-0.098,-0.114Zm0.357,-0.032l0.107,-0.107l0,0l-0.107,0.107Zm0.056,0.317l-0.107,-0.106c-0.041,0.041 -0.055,0.103 -0.035,0.158c0.02,0.055 0.07,0.093 0.129,0.098l0.013,-0.15Zm0.206,0.143l0.148,-0.028l0,0l-0.148,0.028Zm-0.04,0.246l-0.132,-0.071c-0.036,0.066 -0.017,0.148 0.043,0.192l0.089,-0.121Zm1.611,1.19l-0.089,0.121c0.049,0.037 0.114,0.04 0.167,0.008c0.052,-0.031 0.08,-0.09 0.071,-0.15l-0.149,0.021Zm-0.397,-2.705l-0.149,-0.014c-0.001,0.012 -0.001,0.024 0.001,0.035l0.148,-0.021Zm-0.055,-0.151l-0.107,0.106l0,0l0.107,-0.106Zm-0.206,-0.032l-0.025,-0.148l0,0l0.025,0.148Zm-2.742,0.572l0.691,0.524l0.182,-0.24l-0.691,-0.524l-0.182,0.24Zm0.782,0.404c0.144,0.041 0.144,0.041 0.144,0.041c0,0 0,0.001 0,0.001c0,0 0,0 0,0c0,0 0,0 0,0c0,0 0,0.001 0,0.001c0,0 0,0.001 0,0.001c-0.001,0 0,0 0,-0.001c0.001,-0.003 0.001,-0.004 0.003,-0.008c0.005,-0.011 0.007,-0.017 0.016,-0.027c0.013,-0.017 0.025,-0.024 0.043,-0.024l0,-0.301c-0.141,0 -0.232,0.076 -0.282,0.142c-0.024,0.032 -0.043,0.068 -0.052,0.088c-0.005,0.011 -0.01,0.023 -0.012,0.03c-0.001,0.003 -0.003,0.008 -0.003,0.01c-0.001,0.001 -0.001,0.002 -0.001,0.003l-0.001,0.002c0,0.001 0,0.001 0.145,0.042Zm0.206,-0.016c0.018,0 0.029,0.003 0.035,0.007c0.007,0.003 0.014,0.008 0.019,0.015c0.006,0.007 0.011,0.016 0.014,0.025c0.002,0.006 0.002,0.006 0.003,0.011c0.001,0.003 0,0.002 0.001,0.004c0,0.002 0,0.003 0,0.002l0.301,0c0,-0.133 -0.104,-0.365 -0.373,-0.365l0,0.301Zm0.222,0.064c0.098,0.114 0.098,0.114 0.098,0.114c0,0 -0.001,0 -0.001,0c0,0 0,0.001 0,0.001c0,0 0,0 0,0c0,0 0,0 0,0c0,0 0,0 0,0c0.001,-0.001 0.002,-0.002 0.004,-0.003c0.004,-0.004 0.009,-0.007 0.017,-0.012c0.018,-0.012 0.034,-0.022 0.058,-0.03c0.045,-0.017 0.061,-0.009 0.075,0.004l0.213,-0.213c-0.133,-0.133 -0.296,-0.109 -0.393,-0.073c-0.047,0.018 -0.092,0.043 -0.118,0.06c-0.014,0.009 -0.027,0.019 -0.035,0.025c-0.004,0.003 -0.008,0.006 -0.01,0.008c-0.001,0.001 -0.003,0.002 -0.003,0.002l-0.002,0.002c0,0 0,0 0,0c0,0 0,0 0.097,0.115Zm0.251,0.074c0.047,0.047 0.051,0.081 0.05,0.094c0,0.009 -0.001,0.016 -0.003,0.02c-0.002,0.006 -0.002,0.001 0.008,-0.009l0.213,0.213c0.089,-0.089 0.152,-0.323 -0.055,-0.531l-0.213,0.213Zm0.162,0.211c-0.013,0.15 -0.013,0.15 -0.013,0.15c0,0 -0.001,0 -0.001,0c0,0 0,0 0,0c0,0 0,0 0,0c0,0 -0.001,0 0,0c-0.001,0 -0.001,0 -0.001,0c0.001,0 0.001,0 0.002,0c0.004,0.001 0.007,0.001 0.012,0.002c0.014,0.003 0.024,0.005 0.038,0.011c0.032,0.013 0.024,0.02 0.021,0.008l0.296,-0.056c-0.026,-0.139 -0.138,-0.203 -0.203,-0.23c-0.034,-0.014 -0.072,-0.024 -0.093,-0.028c-0.012,-0.002 -0.024,-0.004 -0.03,-0.005c-0.004,0 -0.008,-0.001 -0.01,-0.001c-0.001,0 -0.002,0 -0.003,0l-0.002,-0.001c0,0 0,0 0,0c0,0 0,0 0,0c0,0 0,0 -0.013,0.15Zm0.058,0.171c0.01,0.038 0.003,0.065 -0.008,0.102c-0.004,0.016 -0.008,0.026 -0.013,0.037c-0.001,0.004 -0.002,0.006 -0.003,0.008c-0.001,0.001 -0.001,0.002 -0.001,0.002c0,0 0,-0.001 0,-0.001c0,0 0,0 0,0c0,0 0,0 0,0c0,0 0.001,-0.001 0.001,-0.001c0,0 0,0 0,0c0,0 0,0 0.132,0.071c0.133,0.071 0.133,0.071 0.133,0.071l0.001,-0.002c0,0 0.001,-0.001 0.001,-0.002c0.001,-0.001 0.002,-0.004 0.004,-0.007c0.002,-0.004 0.006,-0.013 0.009,-0.022c0.007,-0.015 0.018,-0.043 0.026,-0.072c0.015,-0.054 0.028,-0.15 0.014,-0.24l-0.296,0.056Zm0.019,0.339l1.611,1.19l0.179,-0.242l-1.611,-1.19l-0.179,0.242Zm1.849,1.048l-0.397,-2.706l-0.297,0.043l0.396,2.706l0.298,-0.043Zm-0.546,-2.684c0.15,0.013 0.15,0.013 0.15,0.013l0.001,-0.002c0,-0.001 0,-0.002 0,-0.003c0,-0.001 0,-0.004 0,-0.007c0,-0.004 0,-0.012 0,-0.02c0,-0.013 -0.002,-0.039 -0.007,-0.063c-0.009,-0.041 -0.041,-0.119 -0.093,-0.176l-0.213,0.213c0.005,0.005 0.009,0.012 0.011,0.023c0.001,0.005 0.001,0.006 0.001,0.011c0,0.001 0,0.002 0,0.001c0,0 0,-0.001 0,-0.001c0,0 0.001,-0.002 0,-0.001c0,0 0.001,-0.001 0.001,-0.001c0,0 0,-0.001 0,-0.001c0,0 0,0 0,0c0,0 0,0 0,0c0,0 0,0 0.149,0.014Zm0.051,-0.258c-0.026,-0.026 -0.077,-0.081 -0.162,-0.091c-0.028,-0.003 -0.063,-0.001 -0.089,0.003c-0.024,0.004 -0.052,0.009 -0.086,0.015l0.049,0.296c0.037,-0.006 0.063,-0.01 0.081,-0.013c0.019,-0.003 0.018,-0.001 0.01,-0.002c-0.005,-0.001 -0.012,-0.003 -0.02,-0.006c-0.007,-0.002 -0.012,-0.006 -0.014,-0.007c-0.002,-0.001 0.001,0.001 0.018,0.018l0.213,-0.213Zm-0.337,-0.073c-0.072,0.012 -0.735,0.125 -1.379,0.235c-0.323,0.055 -0.641,0.109 -0.878,0.15c-0.119,0.02 -0.217,0.037 -0.286,0.049c-0.034,0.005 -0.061,0.01 -0.08,0.013l-0.028,0.005c0,0 0,0 0.025,0.148c0.026,0.149 0.026,0.149 0.026,0.149l0.028,-0.005c0.018,-0.003 0.045,-0.008 0.08,-0.014c0.069,-0.012 0.167,-0.028 0.286,-0.049c0.237,-0.04 0.555,-0.095 0.877,-0.15c0.645,-0.11 1.307,-0.223 1.378,-0.235l-0.049,-0.296Z" style="fill:#fff;fill-rule:nonzero;"/><path id="path1_stroke1" d="M56.183,27.569c-0.047,0.069 -0.03,0.162 0.038,0.21c0.068,0.047 0.162,0.03 0.209,-0.038l-0.247,-0.172Zm0.552,-0.533l0.113,-0.099c-0.03,-0.035 -0.075,-0.054 -0.121,-0.051c-0.047,0.003 -0.089,0.027 -0.115,0.065l0.123,0.085Zm0.3,0.568c0.055,0.062 0.15,0.068 0.212,0.013c0.063,-0.055 0.069,-0.15 0.014,-0.212l-0.226,0.199Zm-0.605,0.137l0.429,-0.619l-0.247,-0.171l-0.429,0.618l0.247,0.172Zm0.193,-0.605l0.412,0.468l0.226,-0.199l-0.413,-0.468l-0.225,0.199Z" style="fill:#fff;fill-rule:nonzero;"/><path id="path2_stroke1" d="M57.932,28.099c-0.082,0.017 -0.134,0.096 -0.118,0.178c0.017,0.081 0.097,0.134 0.178,0.117l-0.06,-0.295Zm0.45,0.354l-0.139,0.057l0,0l0.139,-0.057Zm-0.177,0.543c-0.042,0.071 -0.018,0.164 0.054,0.206c0.071,0.042 0.164,0.018 0.206,-0.054l-0.26,-0.152Zm-0.243,-0.749c0.03,0.147 0.03,0.147 0.03,0.147c0,0 0,0 0,0c0,0 0,0 0,0c0,0 -0.001,0 -0.001,0c0,0 0,0 0,0c0,0 0,0 0,0c0.002,0 0.003,0 0.005,-0.001c0.007,0 0.013,-0.001 0.024,-0.002c0.026,-0.001 0.049,-0.002 0.082,0.005c0.057,0.011 0.11,0.039 0.141,0.114l0.279,-0.114c-0.081,-0.195 -0.237,-0.271 -0.363,-0.295c-0.059,-0.011 -0.12,-0.012 -0.156,-0.01c-0.019,0.001 -0.038,0.003 -0.048,0.004c-0.006,0.001 -0.012,0.002 -0.015,0.003c-0.002,0 -0.004,0 -0.005,0.001l-0.003,0c0,0 0,0 0.03,0.148Zm0.281,0.263c0.056,0.124 0.044,0.232 0.018,0.335c-0.011,0.049 -0.025,0.084 -0.038,0.114c-0.006,0.014 -0.011,0.023 -0.014,0.03c-0.002,0.003 -0.003,0.005 -0.004,0.007c0,0 0,0 0,0c0,0.001 0,0 0,0c0,0 0,0 0,0c0,0 0,0 0,0c0,0 0,0 0,0c0,0 0,0 0.13,0.076c0.13,0.076 0.13,0.076 0.13,0.076l0.001,-0.003c0.001,0 0.002,-0.002 0.002,-0.004c0.002,-0.003 0.005,-0.008 0.008,-0.014c0.005,-0.01 0.014,-0.027 0.022,-0.047c0.016,-0.037 0.039,-0.097 0.056,-0.163c0.03,-0.128 0.042,-0.33 -0.033,-0.521l-0.278,0.114Z" style="fill:#fff;fill-rule:nonzero;"/><path id="path3_stroke1" d="M58.151,28.668c-0.055,-0.063 -0.15,-0.069 -0.212,-0.015c-0.063,0.054 -0.07,0.149 -0.016,0.212l0.228,-0.197Zm0.449,0.749l0.084,0.126c0.036,-0.024 0.06,-0.063 0.066,-0.105c0.005,-0.043 -0.007,-0.086 -0.036,-0.119l-0.114,0.098Zm-0.44,0.113c-0.069,0.046 -0.088,0.14 -0.042,0.209c0.046,0.069 0.14,0.088 0.209,0.042l-0.167,-0.251Zm-0.237,-0.665l0.564,0.651l0.227,-0.197l-0.563,-0.651l-0.228,0.197Zm0.594,0.427l-0.357,0.238l0.167,0.251l0.357,-0.238l-0.167,-0.251Z" style="fill:#fff;fill-rule:nonzero;"/><path id="path4_stroke1" d="M58.219,30.085c-0.079,0.024 -0.124,0.108 -0.1,0.188c0.024,0.079 0.108,0.124 0.187,0.1l-0.087,-0.288Zm0.352,-0.573c-0.045,-0.07 -0.139,-0.089 -0.208,-0.043c-0.07,0.045 -0.089,0.138 -0.044,0.208l0.252,-0.165Zm-0.308,0.717c0.043,0.144 0.043,0.144 0.043,0.144l0.002,0c0,0 0.001,-0.001 0.002,-0.001c0.002,0 0.004,-0.001 0.007,-0.002c0.004,-0.002 0.013,-0.005 0.021,-0.008c0.015,-0.006 0.041,-0.017 0.067,-0.03c0.048,-0.025 0.124,-0.076 0.182,-0.14c0.053,-0.064 0.107,-0.175 0.114,-0.29c0.003,-0.121 -0.039,-0.252 -0.13,-0.39l-0.252,0.165c0.068,0.103 0.082,0.174 0.081,0.217c0.003,0.049 -0.009,0.066 -0.041,0.101c-0.027,0.034 -0.057,0.051 -0.092,0.07c-0.016,0.008 -0.027,0.012 -0.038,0.017c-0.004,0.001 -0.007,0.002 -0.009,0.003c-0.001,0 -0.001,0 -0.002,0.001c0,0 0,-0.001 0,-0.001c0,0 0.001,0 0.001,0c0,0 0,0 0,0c0,0 0,0 0,0c0,0 0,0 0.044,0.144Z" style="fill:#fff;fill-rule:nonzero;"/></g><g id="Page-18"><path id="path5_stroke1" d="M57.433,20.291l0.078,0.128l0,0l-0.078,-0.128Zm-0.766,-1.266l0.078,0.128l0,0l-0.078,-0.128Zm1.306,0.074c0.067,0.112 0.066,0.282 -0.042,0.486c-0.106,0.202 -0.305,0.413 -0.576,0.577l0.156,0.257c0.309,-0.187 0.55,-0.436 0.686,-0.693c0.134,-0.255 0.177,-0.545 0.033,-0.782l-0.257,0.155Zm-0.618,1.063c-0.271,0.164 -0.55,0.242 -0.778,0.242c-0.232,0.001 -0.382,-0.076 -0.45,-0.188l-0.257,0.155c0.143,0.238 0.42,0.335 0.707,0.334c0.292,0 0.624,-0.098 0.934,-0.286l-0.156,-0.257Zm-1.228,0.054c-0.068,-0.112 -0.066,-0.282 0.042,-0.486c0.106,-0.202 0.305,-0.413 0.576,-0.577l-0.156,-0.257c-0.31,0.187 -0.551,0.436 -0.687,0.693c-0.134,0.255 -0.176,0.545 -0.032,0.782l0.257,-0.155Zm0.618,-1.063c0.271,-0.164 0.55,-0.242 0.778,-0.242c0.231,-0.001 0.382,0.076 0.45,0.188l0.257,-0.155c-0.144,-0.238 -0.42,-0.335 -0.708,-0.334c-0.291,0 -0.623,0.098 -0.933,0.286l0.156,0.257Z" style="fill:#fff;fill-rule:nonzero;"/><path id="path6_stroke1" d="M57.294,20.287c0.043,0.071 0.135,0.094 0.207,0.051c0.071,-0.043 0.093,-0.136 0.05,-0.207l-0.257,0.156Zm-0.482,-1.379c-0.043,-0.071 -0.136,-0.094 -0.207,-0.051c-0.071,0.043 -0.094,0.136 -0.051,0.207l0.258,-0.156Zm0.739,1.223l-0.739,-1.223l-0.258,0.156l0.74,1.223l0.257,-0.156Z" style="fill:#fff;fill-rule:nonzero;"/><path id="path7_stroke1" d="M56.003,20.176c-0.071,0.043 -0.094,0.135 -0.051,0.206c0.043,0.072 0.136,0.094 0.207,0.051l-0.156,-0.257Zm2.087,-0.911c0.071,-0.043 0.094,-0.135 0.051,-0.207c-0.043,-0.071 -0.136,-0.093 -0.207,-0.05l0.156,0.257Zm-1.931,1.168l1.931,-1.168l-0.156,-0.257l-1.931,1.168l0.156,0.257Z" style="fill:#fff;fill-rule:nonzero;"/><path id="path8_stroke1" d="M56.474,20.43c-0.038,0.074 -0.01,0.165 0.064,0.203c0.073,0.039 0.164,0.011 0.203,-0.063l-0.267,-0.14Zm1.178,-1.6c0.039,-0.074 0.01,-0.165 -0.063,-0.203c-0.074,-0.039 -0.165,-0.01 -0.204,0.063l0.267,0.14Zm-0.911,1.74l0.911,-1.74l-0.267,-0.14l-0.911,1.74l0.267,0.14Z" style="fill:#fff;fill-rule:nonzero;"/><path id="path9_stroke1" d="M56.005,19.517c-0.083,0 -0.15,0.067 -0.15,0.15c0,0.084 0.068,0.151 0.151,0.151l-0.001,-0.301Zm1.983,0.296c0.084,0 0.151,-0.067 0.151,-0.15c-0.001,-0.083 -0.068,-0.151 -0.151,-0.15l0,0.3Zm-1.982,0.005l1.982,-0.005l0,-0.3l-1.983,0.004l0.001,0.301Z" style="fill:#fff;fill-rule:nonzero;"/><path id="path10_stroke1" d="M58.237,18.908c-0.043,-0.071 -0.136,-0.094 -0.207,-0.051c-0.071,0.044 -0.093,0.136 -0.05,0.207l0.257,-0.156Zm-0.452,1.805l0.083,0.125l0,0l-0.083,-0.125Zm-1.661,-0.548c-0.052,-0.066 -0.146,-0.077 -0.212,-0.025c-0.065,0.051 -0.076,0.146 -0.024,0.211l0.236,-0.186Zm1.985,-1.179c-0.129,0.078 -0.129,0.078 -0.129,0.078c0,0 0,0 0,0c0,0 0,0 0,0c0,0 0,0 0,0c0,0 0,0.001 0.001,0.001c0.001,0.002 0.002,0.004 0.004,0.007c0.004,0.008 0.009,0.017 0.016,0.031c0.015,0.029 0.034,0.067 0.056,0.119c0.044,0.105 0.089,0.24 0.107,0.4c0.036,0.308 -0.031,0.678 -0.463,0.966l0.167,0.25c0.547,-0.364 0.641,-0.858 0.595,-1.251c-0.023,-0.19 -0.08,-0.365 -0.128,-0.481c-0.025,-0.059 -0.05,-0.11 -0.067,-0.142c-0.009,-0.017 -0.016,-0.031 -0.021,-0.04c-0.003,-0.005 -0.005,-0.009 -0.007,-0.011c-0.001,-0.002 -0.001,-0.003 -0.002,-0.004l-0.001,-0.001c0,0 0,0 -0.128,0.078Zm-0.408,1.602c-0.4,0.266 -0.779,0.174 -1.079,0c-0.153,-0.089 -0.274,-0.192 -0.364,-0.28c-0.045,-0.043 -0.078,-0.078 -0.102,-0.105c-0.011,-0.013 -0.019,-0.022 -0.025,-0.03c-0.003,-0.003 -0.005,-0.005 -0.006,-0.007c-0.001,-0.001 -0.001,-0.001 -0.001,-0.001c0,0 0,0 0,-0.001c0,0 0,0 0,0c0,0 0,0.001 0,0.001c0,0 0,0 -0.118,0.093c-0.118,0.093 -0.118,0.093 -0.118,0.093l0.001,0.002c0,0 0.001,0.002 0.002,0.003c0.002,0.002 0.005,0.006 0.009,0.01c0.007,0.009 0.018,0.022 0.032,0.037c0.026,0.029 0.066,0.073 0.116,0.121c0.098,0.095 0.247,0.221 0.423,0.324c0.357,0.208 0.867,0.343 1.397,-0.01l-0.167,-0.25Z" style="fill:#fff;fill-rule:nonzero;"/></g><g id="Page-19"><path id="path11_stroke1" d="M64.047,10.968c-0.034,0.076 0,0.165 0.076,0.199c0.076,0.034 0.165,0 0.199,-0.076l-0.275,-0.123Zm0.557,-0.512c0.034,-0.075 0,-0.164 -0.076,-0.198c-0.076,-0.034 -0.165,0 -0.199,0.076l0.275,0.122Zm-0.282,0.635l0.282,-0.635l-0.275,-0.122l-0.282,0.634l0.275,0.123Z" style="fill:#fff;fill-rule:nonzero;"/><path id="path12_stroke1" d="M65.11,8.211l0.062,-0.137c-0.076,-0.034 -0.165,0 -0.199,0.076l0.137,0.061Zm0.67,0.298l0.137,0.061c0.034,-0.076 0,-0.164 -0.076,-0.198l-0.061,0.137Zm-0.935,2.1l-0.061,0.137c0.076,0.034 0.165,0 0.198,-0.076l-0.137,-0.061Zm-0.67,-0.298l-0.137,-0.062c-0.016,0.037 -0.017,0.078 -0.003,0.116c0.014,0.037 0.043,0.067 0.079,0.083l0.061,-0.137Zm0.874,-1.962l0.67,0.298l0.122,-0.275l-0.669,-0.298l-0.123,0.275Zm0.593,0.099l-0.934,2.1l0.274,0.122l0.935,-2.1l-0.275,-0.122Zm-0.736,2.023l-0.669,-0.298l-0.123,0.275l0.67,0.298l0.122,-0.275Zm-0.593,-0.099l0.935,-2.1l-0.275,-0.122l-0.935,2.099l0.275,0.123Z" style="fill:#fff;fill-rule:nonzero;"/><path id="path13_stroke1" d="M65.261,8.243c-0.034,0.076 0,0.165 0.076,0.199c0.076,0.034 0.165,0 0.199,-0.076l-0.275,-0.123Zm0.415,-0.192c0.034,-0.076 -0.001,-0.165 -0.076,-0.199c-0.076,-0.033 -0.165,0.001 -0.199,0.077l0.275,0.122Zm-0.14,0.315l0.14,-0.315l-0.275,-0.122l-0.14,0.314l0.275,0.123Z" style="fill:#fff;fill-rule:nonzero;"/><path id="path14_stroke1" d="M64.904,8.369c-0.068,-0.047 -0.162,-0.029 -0.209,0.04c-0.046,0.068 -0.029,0.162 0.04,0.209l0.169,-0.249Zm0.732,0.774c0.081,0.02 0.163,-0.029 0.183,-0.109c0.02,-0.081 -0.028,-0.163 -0.109,-0.183l-0.074,0.292Zm-0.816,-0.65c-0.085,0.125 -0.085,0.125 -0.085,0.125l0.002,0.001c0.002,0.001 0.004,0.002 0.006,0.004c0.005,0.003 0.013,0.009 0.022,0.015c0.019,0.013 0.047,0.031 0.08,0.053c0.066,0.044 0.158,0.104 0.254,0.164c0.097,0.061 0.201,0.125 0.292,0.175c0.086,0.048 0.178,0.096 0.245,0.113l0.074,-0.292c-0.022,-0.006 -0.081,-0.033 -0.172,-0.083c-0.086,-0.048 -0.184,-0.108 -0.278,-0.167c-0.095,-0.06 -0.183,-0.118 -0.249,-0.161c-0.033,-0.022 -0.059,-0.039 -0.078,-0.052c-0.009,-0.006 -0.016,-0.011 -0.021,-0.014l-0.008,-0.005c0,0 0,0 -0.084,0.124Z" style="fill:#fff;fill-rule:nonzero;"/><path id="path15_stroke1" d="M64.412,9.305c-0.066,-0.05 -0.161,-0.036 -0.21,0.031c-0.05,0.066 -0.036,0.16 0.031,0.21l0.179,-0.241Zm0.752,0.81c0.077,0.03 0.164,-0.009 0.194,-0.087c0.029,-0.077 -0.01,-0.164 -0.087,-0.194l-0.107,0.281Zm-0.842,-0.69c-0.089,0.121 -0.089,0.121 -0.089,0.121l0.001,0.001c0.002,0.001 0.003,0.003 0.006,0.004c0.004,0.004 0.011,0.008 0.019,0.014c0.016,0.012 0.041,0.03 0.07,0.051c0.06,0.043 0.143,0.101 0.236,0.163c0.186,0.124 0.424,0.269 0.599,0.336l0.107,-0.281c-0.149,-0.056 -0.358,-0.185 -0.539,-0.305c-0.09,-0.06 -0.17,-0.116 -0.228,-0.158c-0.029,-0.02 -0.051,-0.037 -0.068,-0.049c-0.007,-0.005 -0.013,-0.01 -0.018,-0.013c-0.002,-0.001 -0.003,-0.002 -0.004,-0.003l-0.002,-0.001c0,0 0,0 0,0c0,0 0,0 -0.09,0.12Z" style="fill:#fff;fill-rule:nonzero;"/></g><g id="Page-110"><path id="path16_stroke1" d="M53.973,13.804c-0.008,-0.083 -0.082,-0.143 -0.165,-0.134c-0.083,0.009 -0.143,0.083 -0.134,0.165l0.299,-0.031Zm0.001,1.445l-0.149,0.016c0.008,0.076 0.072,0.135 0.149,0.135l0,-0.151Zm1.054,0l0,0.151c0.078,0 0.143,-0.06 0.149,-0.138l-0.149,-0.013Zm0.275,-1.442c0.007,-0.082 -0.054,-0.155 -0.137,-0.162c-0.083,-0.008 -0.156,0.054 -0.163,0.137l0.3,0.025Zm-1.629,0.028l0.151,1.43l0.299,-0.032l-0.151,-1.429l-0.299,0.031Zm0.3,1.565l1.054,0l0,-0.301l-1.054,0l0,0.301Zm1.203,-0.138l0.126,-1.455l-0.3,-0.025l-0.125,1.454l0.299,0.026Z" style="fill:#fff;fill-rule:nonzero;"/><path id="path17_stroke1" d="M54.985,13.694c-0.052,0.065 -0.041,0.16 0.024,0.212c0.065,0.052 0.16,0.041 0.212,-0.024l-0.236,-0.188Zm0.53,-0.182c0.052,-0.065 0.041,-0.16 -0.024,-0.211c-0.065,-0.052 -0.16,-0.041 -0.211,0.024l0.235,0.187Zm-0.294,0.37l0.294,-0.37l-0.235,-0.187l-0.295,0.369l0.236,0.188Z" style="fill:#fff;fill-rule:nonzero;"/><path id="path18_stroke1" d="M53.642,13.401c-0.051,-0.065 -0.146,-0.077 -0.212,-0.026c-0.065,0.051 -0.077,0.145 -0.026,0.211l0.238,-0.185Zm0.144,0.431l-0.119,0.092c0.029,0.037 0.073,0.059 0.119,0.059l0,-0.151Zm1.292,0.151c0.083,0 0.15,-0.068 0.15,-0.151c0,-0.083 -0.067,-0.15 -0.15,-0.15l0,0.301Zm-1.674,-0.397l0.263,0.338l0.238,-0.184l-0.263,-0.339l-0.238,0.185Zm0.382,0.397l1.292,0l0,-0.301l-1.292,0l0,0.301Z" style="fill:#fff;fill-rule:nonzero;"/><path id="path19_stroke1" d="M54.513,13.735c-0.033,0.076 0.003,0.165 0.079,0.198c0.076,0.033 0.165,-0.003 0.198,-0.079l-0.277,-0.119Zm1.117,-1.837c0.033,-0.077 -0.003,-0.165 -0.079,-0.198c-0.076,-0.033 -0.165,0.003 -0.198,0.079l0.277,0.119Zm-0.84,1.956l0.84,-1.956l-0.277,-0.119l-0.84,1.956l0.277,0.119Z" style="fill:#fff;fill-rule:nonzero;"/><path id="path20_stroke1" d="M54.357,13.752c-0.024,0.079 0.021,0.163 0.101,0.187c0.08,0.023 0.163,-0.022 0.187,-0.102l-0.288,-0.085Zm0.802,-1.645c0.024,-0.08 -0.021,-0.164 -0.101,-0.187c-0.08,-0.024 -0.164,0.021 -0.187,0.101l0.288,0.086Zm-0.514,1.73l0.514,-1.73l-0.288,-0.086l-0.514,1.731l0.288,0.085Z" style="fill:#fff;fill-rule:nonzero;"/></g><g id="Page-111"><path id="path21_stroke1" d="M52.394,5.533l-0.144,-0.044c-0.014,0.046 -0.005,0.095 0.023,0.134c0.029,0.038 0.074,0.06 0.121,0.06l0,-0.15Zm2.024,0l0,0.15c0.048,0 0.092,-0.022 0.121,-0.061c0.028,-0.038 0.037,-0.088 0.023,-0.133l-0.144,0.044Zm-2.024,0.15l2.024,0l0,-0.301l-2.024,0l0,0.301Zm2.024,-0.15c0.144,-0.044 0.144,-0.044 0.144,-0.044l-0.001,-0.002c0,0 0,-0.002 -0.001,-0.003c0,-0.001 -0.001,-0.005 -0.002,-0.008c-0.003,-0.006 -0.006,-0.016 -0.011,-0.027c-0.008,-0.021 -0.022,-0.055 -0.04,-0.091c-0.035,-0.07 -0.097,-0.173 -0.183,-0.271c-0.176,-0.199 -0.469,-0.396 -0.919,-0.396l0,0.301c0.351,0 0.565,0.149 0.694,0.295c0.068,0.075 0.109,0.145 0.139,0.205c0.014,0.028 0.022,0.049 0.029,0.066c0.003,0.007 0.005,0.012 0.006,0.016c0.001,0.002 0.001,0.003 0.001,0.003c0,0.001 0,0.001 0,0.001c0,0 0,-0.001 0,-0.001c0,0.001 0,0 0,0c0,0 0,0 0,0c0,0 0,0 0.144,-0.044Zm-1.013,-0.842c-0.45,0 -0.742,0.197 -0.919,0.396c-0.085,0.098 -0.147,0.201 -0.181,0.271c-0.018,0.037 -0.032,0.07 -0.041,0.091c-0.004,0.011 -0.008,0.022 -0.01,0.027c-0.001,0.004 -0.002,0.007 -0.002,0.009c-0.001,0.001 -0.001,0.002 -0.001,0.003l-0.001,0.001c0,0 0,0 0.144,0.044c0.144,0.044 0.144,0.044 0.144,0.044c0,0 0,0 0,0c0,0 0,0 0,0c0,0 0,0 0,0c0,0 0,0 0,0c0,-0.001 0.001,-0.002 0.001,-0.003c0.002,-0.004 0.003,-0.009 0.006,-0.017c0.007,-0.017 0.015,-0.037 0.029,-0.065c0.03,-0.06 0.071,-0.13 0.138,-0.205c0.129,-0.146 0.342,-0.295 0.693,-0.295l0,-0.301Z" style="fill:#fff;fill-rule:nonzero;"/><path id="path22_stroke1" d="M52.169,6.195c-0.084,0 -0.151,0.068 -0.151,0.151c0,0.083 0.067,0.15 0.151,0.15l0,-0.301Zm2.266,0.301c0.083,0 0.15,-0.067 0.15,-0.15c0,-0.083 -0.067,-0.151 -0.15,-0.151l0,0.301Zm-2.266,0l2.266,0l0,-0.301l-2.266,0l0,0.301Z" style="fill:#fff;fill-rule:nonzero;"/><path id="path23_stroke1" d="M52.319,6.722l0,-0.15c-0.083,0 -0.15,0.067 -0.15,0.15l0.15,0Zm2.096,0l0.15,0.005c0.001,-0.041 -0.014,-0.08 -0.042,-0.11c-0.029,-0.029 -0.068,-0.045 -0.108,-0.045l0,0.15Zm-1.969,0.386l-0.117,0.093c0.028,0.036 0.072,0.057 0.117,0.057l0,-0.15Zm-0.127,-0.235l2.096,0l0,-0.301l-2.096,0l0,0.301Zm2.096,-0.151c-0.151,-0.004 -0.151,-0.004 -0.151,-0.004c0,0 0,-0.001 0,-0.001c0,0 0,0 0,0c0,0 0,0 0,0c0,0 0,0 0,0c0,0.001 0,0.001 0,0.002c0,0.002 0,0.005 0,0.009c-0.001,0.009 -0.002,0.02 -0.004,0.035c-0.004,0.032 -0.01,0.067 -0.023,0.105c-0.028,0.086 -0.056,0.089 -0.065,0.089l0,0.301c0.222,0 0.316,-0.19 0.351,-0.296c0.019,-0.058 0.03,-0.12 0.036,-0.16c0.002,-0.021 0.004,-0.041 0.005,-0.052c0,-0.007 0.001,-0.013 0.001,-0.016c0,-0.002 0,-0.004 0,-0.005l0,-0.002c0,0 0,0 -0.15,-0.005Zm-0.243,0.235l-1.726,0l0,0.301l1.726,0l0,-0.301Zm-1.726,0.151c0.118,-0.094 0.118,-0.094 0.118,-0.094c0,0 0,0 0,0c0,0 0,0 0,0c0,0 0.001,0.001 0,0c0,0 0.001,0.001 0.001,0.001c0,0 0,0 0,0c-0.001,-0.001 -0.001,-0.001 -0.002,-0.003c-0.003,-0.004 -0.006,-0.007 -0.01,-0.014c-0.01,-0.016 -0.021,-0.034 -0.034,-0.062c-0.028,-0.06 -0.051,-0.125 -0.05,-0.214l-0.3,0c0.001,0.137 0.042,0.265 0.077,0.341c0.019,0.041 0.04,0.077 0.054,0.098c0.008,0.011 0.015,0.022 0.019,0.028c0.002,0.003 0.005,0.006 0.006,0.008c0.001,0.001 0.002,0.002 0.002,0.003l0.002,0.001c0,0 0,0 0.117,-0.093Z" style="fill:#fff;fill-rule:nonzero;"/><path id="path24_stroke1" d="M52.295,5.755c-0.078,-0.029 -0.164,0.012 -0.193,0.09c-0.028,0.078 0.012,0.164 0.09,0.193l0.103,-0.283Zm1.134,0.574l-0.052,0.141c0.036,0.014 0.077,0.012 0.112,-0.003l-0.06,-0.138Zm0.99,-0.433l0.061,0.138c0.065,-0.028 0.101,-0.099 0.087,-0.168c-0.015,-0.07 -0.076,-0.12 -0.147,-0.12l-0.001,0.15Zm-2.173,-0.152c-0.084,0 -0.151,0.067 -0.151,0.15c0,0.083 0.067,0.151 0.15,0.151l0.001,-0.301Zm-0.054,0.294l1.185,0.432l0.103,-0.282l-1.185,-0.433l-0.103,0.283Zm1.297,0.429l0.991,-0.433l-0.121,-0.276l-0.99,0.433l0.12,0.276Zm0.931,-0.721l-2.174,-0.002l-0.001,0.301l2.174,0.002l0.001,-0.301Z" style="fill:#fff;fill-rule:nonzero;"/></g><g id="Page-112"><path id="path25_stroke1" d="M64.675,17.371c0.048,-0.068 0.03,-0.162 -0.038,-0.209c-0.069,-0.047 -0.162,-0.03 -0.209,0.038l0.247,0.171Zm-0.312,-1.138c0.056,0.062 0.151,0.066 0.213,0.011c0.061,-0.056 0.066,-0.151 0.01,-0.213l-0.223,0.202Zm0.065,0.967c-0.142,0.205 -0.377,0.339 -0.644,0.339l0,0.301c0.37,0 0.696,-0.186 0.891,-0.469l-0.247,-0.171Zm-0.644,0.339c-0.432,0 -0.781,-0.35 -0.781,-0.781l-0.301,0c0,0.597 0.484,1.082 1.082,1.082l0,-0.301Zm-0.781,-0.781c0,-0.432 0.349,-0.782 0.781,-0.782l0,-0.301c-0.598,0 -1.082,0.485 -1.082,1.083l0.301,0Zm0.781,-0.782c0.23,0 0.436,0.099 0.579,0.257l0.223,-0.202c-0.198,-0.218 -0.484,-0.356 -0.802,-0.356l0,0.301Z" style="fill:#fff;fill-rule:nonzero;"/><path id="path26_stroke1" d="M64.119,15.425c0.07,-0.045 0.09,-0.138 0.045,-0.208c-0.046,-0.069 -0.139,-0.089 -0.209,-0.044l0.164,0.252Zm-0.514,0.425c0,0.083 0.067,0.15 0.15,0.15c0.083,0 0.151,-0.067 0.151,-0.15l-0.301,0Zm0.432,-0.551c-0.082,-0.126 -0.082,-0.126 -0.082,-0.126l-0.001,0.001c0,0 -0.001,0 -0.001,0.001c-0.001,0 -0.003,0.002 -0.004,0.003c-0.003,0.002 -0.008,0.005 -0.013,0.009c-0.01,0.007 -0.025,0.019 -0.041,0.033c-0.03,0.026 -0.076,0.071 -0.118,0.125c-0.078,0.103 -0.168,0.286 -0.172,0.505l0.301,0c-0.005,-0.148 0.047,-0.241 0.11,-0.321c0.028,-0.038 0.053,-0.062 0.076,-0.082c0.01,-0.009 0.017,-0.014 0.023,-0.018c0.003,-0.002 0.004,-0.003 0.005,-0.004c0,0 0.001,0 0,0c0.001,0 0,0 0,0c0,0 0,0 0,0c0,0 0,0 0,0c0,0 0,0 0,0c0,0 -0.001,0 -0.083,-0.126Z" style="fill:#fff;fill-rule:nonzero;"/><path id="path27_stroke1" d="M64.537,17.393c0.08,0.022 0.163,-0.024 0.186,-0.104c0.022,-0.081 -0.025,-0.164 -0.105,-0.186l-0.081,0.29Zm-0.044,-0.498l0.106,0.107c0.04,-0.04 0.054,-0.098 0.038,-0.151c-0.017,-0.054 -0.062,-0.094 -0.117,-0.104l-0.027,0.148Zm-0.122,-0.394l0.118,0.093c0.039,-0.049 0.043,-0.117 0.011,-0.171l-0.129,0.078Zm0.147,-0.227c0.082,-0.016 0.134,-0.095 0.118,-0.177c-0.017,-0.081 -0.096,-0.134 -0.177,-0.118l0.059,0.295Zm0.06,0.974c0.04,-0.145 0.04,-0.145 0.04,-0.145c0,0 0,0 0,0c0,0 0,0 0,0c0,0 0.001,0 0.001,0c0,0 0,0 0,0c0,0.001 0,0 0,0c-0.002,0 -0.003,-0.001 -0.006,-0.001c-0.007,-0.003 -0.012,-0.005 -0.022,-0.009c-0.022,-0.01 -0.033,-0.015 -0.044,-0.029c-0.013,-0.011 0.006,0.006 0,0.009c0,0.004 0.001,-0.02 0.052,-0.071l-0.212,-0.213c-0.078,0.077 -0.131,0.162 -0.14,0.256c-0.009,0.1 0.035,0.177 0.083,0.227c0.042,0.043 0.101,0.078 0.135,0.094c0.019,0.008 0.038,0.016 0.048,0.019c0.007,0.003 0.013,0.005 0.016,0.006c0.002,0 0.004,0.001 0.005,0.001l0.003,0.001l0,0c0,0 0,0 0.041,-0.145Zm-0.085,-0.353c0.027,-0.148 0.027,-0.148 0.027,-0.148c0,0 0.001,0 0.001,0c0,0 0,0 0,0c0,0 0,0 0,0c0,0 0.001,0.001 0.001,0.001c0,0 -0.001,0 -0.001,-0.001c-0.002,0 -0.003,0 -0.006,-0.001c-0.008,-0.002 -0.014,-0.004 -0.025,-0.008c-0.025,-0.009 -0.038,-0.014 -0.052,-0.029c-0.008,-0.007 -0.006,-0.008 -0.006,-0.008c0,-0.006 0.004,-0.04 0.057,-0.107l-0.236,-0.187c-0.075,0.095 -0.121,0.192 -0.122,0.29c-0.001,0.104 0.048,0.182 0.102,0.233c0.049,0.043 0.114,0.076 0.152,0.09c0.021,0.008 0.042,0.014 0.054,0.017c0.007,0.002 0.014,0.004 0.017,0.004c0.003,0.001 0.005,0.001 0.006,0.002l0.003,0l0,0c0,0 0,0 0.028,-0.148Zm-0.122,-0.394c0.129,-0.078 0.129,-0.078 0.129,-0.078c0,0 0,0 0,0c0,0 0,0 0,0c0,0 0,0.001 0,0.001c0,0 0,0 0,0c0,-0.001 0,-0.001 0,-0.001c-0.001,-0.002 -0.002,-0.003 -0.003,-0.006c-0.004,-0.007 -0.008,-0.014 -0.012,-0.025c-0.011,-0.025 -0.019,-0.044 -0.02,-0.071c-0.002,-0.013 -0.002,-0.013 0,-0.022c0.001,-0.008 -0.003,0 0.001,-0.004c0.003,-0.006 -0.003,-0.001 0.007,-0.005c0.012,-0.008 0.019,-0.011 0.045,-0.016l-0.059,-0.295c-0.104,0.021 -0.19,0.069 -0.243,0.149c-0.052,0.077 -0.057,0.161 -0.051,0.224c0.007,0.06 0.028,0.123 0.043,0.158c0.008,0.019 0.017,0.037 0.022,0.047c0.003,0.006 0.006,0.011 0.008,0.014c0.001,0.002 0.002,0.004 0.003,0.005l0.001,0.002c0,0 0,0 0.129,-0.077Z" style="fill:#fff;fill-rule:nonzero;"/></g><g id="Page-113"><path id="path28_stroke1" d="M58.639,7.625l0.001,-0.151c-0.04,0 -0.079,0.016 -0.107,0.044c-0.029,0.029 -0.044,0.067 -0.044,0.107l0.15,0Zm2.683,0l0.107,-0.106c-0.043,-0.043 -0.107,-0.056 -0.164,-0.033c-0.056,0.023 -0.093,0.078 -0.093,0.139l0.15,0Zm-1.574,1.036l0,-0.15c-0.003,0 -0.005,0 -0.007,0l0.007,0.15Zm-1.109,-1.036c-0.001,0.15 -0.001,0.15 -0.001,0.15l0.008,0c0.005,0 0.013,0.001 0.023,0.001c0.019,0 0.048,0 0.085,0c0.074,0 0.179,0.001 0.305,0.001c0.253,0.001 0.589,0.002 0.925,0.002c0.336,0.001 0.673,0.001 0.924,0.001c0.126,0 0.231,-0.001 0.304,-0.002c0.036,0 0.066,0 0.086,-0.001c0.01,0 0.02,-0.001 0.027,-0.001c0.004,0 0.011,-0.001 0.016,-0.001c0.005,-0.001 0.018,-0.004 0.027,-0.006c0.001,-0.001 0.031,-0.009 0.058,-0.035c0.016,-0.018 0.042,-0.071 0.047,-0.106c-0.003,-0.035 -0.028,-0.09 -0.044,-0.109l-0.213,0.212c-0.016,-0.019 -0.04,-0.074 -0.044,-0.109c0.005,-0.035 0.031,-0.088 0.047,-0.106c0.027,-0.026 0.057,-0.034 0.058,-0.034c0.013,-0.004 0.024,-0.006 0.024,-0.006c-0.003,0.001 0.006,0 0.006,0c-0.003,0 -0.008,0 -0.017,0c-0.018,0.001 -0.045,0.001 -0.081,0.001c-0.073,0.001 -0.176,0.002 -0.302,0.002c-0.251,0 -0.586,0 -0.922,-0.001c-0.336,0 -0.672,-0.001 -0.925,-0.002c-0.126,0 -0.231,-0.001 -0.305,-0.001c-0.037,0 -0.065,0 -0.085,0c-0.01,0 -0.018,0 -0.023,0l-0.007,0c0,0 0,0 0,-0.001c0,0 0,0 0,0c0,0 0,0 -0.001,0.151Zm2.533,0c0,0.351 -0.131,0.566 -0.291,0.697c-0.165,0.135 -0.37,0.189 -0.522,0.189l0,0.301c0.211,0 0.487,-0.072 0.713,-0.257c0.232,-0.191 0.401,-0.493 0.401,-0.93l-0.301,0Zm-0.813,0.886l-0.611,0l0,0.301l0.611,0l0,-0.301Zm-0.611,0.15c-0.007,-0.15 -0.007,-0.15 -0.007,-0.15c0,0 0,0 0,0c0,0 0,0 0,0c0,0 0,0 0,0c0,0 -0.001,0 -0.001,0c-0.002,0 -0.004,0 -0.007,0c-0.007,0 -0.016,0 -0.03,0c-0.028,-0.001 -0.064,-0.003 -0.111,-0.008c-0.098,-0.012 -0.215,-0.034 -0.338,-0.09c-0.126,-0.055 -0.232,-0.126 -0.319,-0.254c-0.084,-0.119 -0.146,-0.289 -0.146,-0.534l-0.3,0c0,0.299 0.076,0.531 0.2,0.707c0.121,0.169 0.292,0.289 0.443,0.357c0.154,0.067 0.315,0.1 0.425,0.113c0.057,0.006 0.107,0.009 0.139,0.01c0.017,0 0.032,0 0.041,0c0.005,0 0.01,0 0.012,0c0.001,0 0.003,-0.001 0.004,-0.001l0.001,0c0,0 0,0 0,0c0,0 0.001,0 -0.006,-0.15Z" style="fill:#fff;fill-rule:nonzero;"/><path id="path29_fill1" d="M59.217,7.389c-0.069,0 -0.124,-0.055 -0.124,-0.124c0,-0.067 -0.031,-0.113 -0.085,-0.188c-0.064,-0.088 -0.143,-0.198 -0.143,-0.372l0,-0.051c0,-0.174 0.079,-0.284 0.143,-0.372c0.054,-0.075 0.085,-0.121 0.085,-0.188c0,-0.069 0.055,-0.124 0.124,-0.124c0.069,0 0.124,0.055 0.124,0.124c0,0.151 -0.073,0.252 -0.132,0.333c-0.053,0.075 -0.096,0.133 -0.096,0.227l0,0.051c0,0.094 0.043,0.152 0.096,0.227c0.059,0.081 0.132,0.182 0.132,0.333c0,0.069 -0.055,0.124 -0.124,0.124Z" style="fill:#fff;"/><path id="path30_fill1" d="M60.797,7.389c-0.069,0 -0.124,-0.055 -0.124,-0.124c0,-0.067 -0.031,-0.113 -0.085,-0.188c-0.064,-0.088 -0.143,-0.198 -0.143,-0.372l0,-0.051c0,-0.174 0.079,-0.284 0.143,-0.372c0.054,-0.075 0.085,-0.121 0.085,-0.188c0,-0.069 0.055,-0.124 0.124,-0.124c0.069,0 0.124,0.055 0.124,0.124c0,0.151 -0.073,0.252 -0.132,0.333c-0.053,0.075 -0.096,0.133 -0.096,0.227l0,0.051c0,0.094 0.043,0.152 0.096,0.226c0.059,0.082 0.132,0.183 0.132,0.334c0,0.069 -0.055,0.124 -0.124,0.124Z" style="fill:#fff;"/><path id="path31_fill1" d="M60.045,7.389c-0.069,0 -0.125,-0.055 -0.125,-0.124c0,-0.067 -0.03,-0.113 -0.085,-0.188c-0.063,-0.088 -0.143,-0.198 -0.143,-0.372l0,-0.051c0,-0.174 0.08,-0.284 0.143,-0.372c0.055,-0.075 0.085,-0.121 0.085,-0.188c0,-0.069 0.056,-0.124 0.125,-0.124c0.068,0 0.124,0.055 0.124,0.124c0,0.151 -0.073,0.252 -0.132,0.333c-0.054,0.075 -0.096,0.133 -0.096,0.227l0,0.051c0,0.094 0.042,0.152 0.096,0.226c0.059,0.082 0.132,0.183 0.132,0.334c0,0.069 -0.056,0.124 -0.124,0.124Z" style="fill:#fff;"/></g><path id="path32_stroke1" d="M65.787,24.45l-0.151,-0.001c0,0.041 0.016,0.08 0.045,0.108c0.029,0.029 0.068,0.044 0.109,0.043l-0.003,-0.15Zm1.077,0l-0.004,0.15c0.041,0.001 0.08,-0.014 0.109,-0.043c0.029,-0.028 0.045,-0.067 0.045,-0.107l-0.15,0Zm0,-1.956l-0.151,-0.004c0,0.002 0,0.003 0,0.004l0.151,0Zm-0.336,-0.706l-0.151,0c0,0.083 0.067,0.15 0.151,0.15l0,-0.15Zm0,-0.319l0.15,0c0,-0.083 -0.067,-0.151 -0.15,-0.151l0,0.151Zm-0.38,0l0,-0.151c-0.083,0 -0.15,0.068 -0.15,0.151l0.15,0Zm0,0.319l0.008,0.15c0.08,-0.004 0.143,-0.07 0.143,-0.15l-0.151,0Zm-0.361,2.662c0.003,0.15 0.003,0.15 0.003,0.15l0,0c0,0 0,0 0,0c0,0 0.001,0 0.001,0c0,0 0.001,0 0.002,0c0.003,0 0.006,0 0.01,0c0.009,0 0.021,-0.001 0.037,-0.001c0.031,0 0.075,-0.001 0.127,-0.002c0.104,-0.002 0.236,-0.004 0.354,-0.004l0,-0.301c-0.12,0 -0.255,0.002 -0.359,0.004c-0.052,0.001 -0.097,0.002 -0.128,0.002c-0.016,0.001 -0.029,0.001 -0.038,0.001c-0.004,0 -0.007,0 -0.009,0l-0.004,0l0,0c0,0 0,0 0.004,0.151Zm0.534,0.143c0.118,0 0.253,0.002 0.358,0.004c0.053,0.001 0.098,0.002 0.13,0.002c0.016,0 0.029,0.001 0.038,0.001c0.004,0 0.007,0 0.01,0l0.003,0l0,0c0,0 0,0 0.004,-0.15l0.003,-0.151c0,0 0,0 0,0c0,0 0,0 0,0c0,0 0,0 0,0c0,0 -0.001,0 -0.001,0c-0.001,0 -0.001,0 -0.003,0c-0.002,0 -0.005,0 -0.01,0c-0.009,0 -0.022,0 -0.038,-0.001c-0.032,0 -0.078,-0.001 -0.131,-0.002c-0.106,-0.002 -0.243,-0.004 -0.363,-0.004l0,0.301Zm0.693,-0.143l0,-1.956l-0.301,0l0,1.956l0.301,0Zm-0.15,-1.956c0.15,0.004 0.15,0.004 0.15,0.004l0,-0.004c0,-0.001 0,-0.004 0,-0.007c0,-0.005 0,-0.014 0,-0.025c0,-0.02 -0.001,-0.052 -0.003,-0.087c-0.004,-0.07 -0.015,-0.17 -0.036,-0.267c-0.022,-0.097 -0.065,-0.214 -0.124,-0.298c-0.069,-0.095 -0.176,-0.173 -0.323,-0.173l0,0.301c0.028,0 0.052,0.011 0.079,0.048c0.037,0.048 0.056,0.108 0.074,0.188c0.018,0.079 0.026,0.155 0.029,0.219c0.002,0.03 0.003,0.054 0.003,0.072c0,0.009 0,0.015 0,0.02c0,0.002 0,0.003 0,0.005c0,0 0,0 0,0.001c0,0 0,0 0,0c0,0 0,0 0,0c0,0 0,-0.001 0,-0.001c0,0 0,0 0.151,0.004Zm-0.186,-0.706l0,-0.319l-0.301,0l0,0.319l0.301,0Zm-0.15,-0.47l-0.38,0l0,0.301l0.38,0l0,-0.301Zm-0.53,0.151l0,0.319l0.301,0l0,-0.319l-0.301,0Zm0.15,0.319c-0.007,-0.151 -0.007,-0.151 -0.007,-0.151l-0.002,0c-0.001,0 -0.002,0.001 -0.003,0.001c-0.002,0 -0.005,0 -0.008,0c-0.005,0.001 -0.014,0.002 -0.022,0.004c-0.014,0.002 -0.04,0.009 -0.064,0.017c-0.043,0.016 -0.115,0.056 -0.177,0.115c-0.125,0.125 -0.22,0.341 -0.22,0.703l0.301,0c0,-0.31 0.081,-0.439 0.132,-0.49c0.027,-0.03 0.043,-0.037 0.067,-0.045c0.008,-0.003 0.01,-0.003 0.016,-0.004c0.001,-0.001 0.001,-0.001 0,-0.001c0.001,0 -0.002,0.001 -0.002,0.001c0.001,0 -0.001,0 -0.001,0c0,0 -0.001,0 -0.001,0c0,0 -0.001,0 -0.001,0c0,0 0,0 0,0c0,0 0,0 -0.008,-0.15Zm-0.503,0.689c0,0.223 -0.002,0.716 -0.005,1.154c-0.001,0.218 -0.002,0.423 -0.003,0.573c0,0.075 0,0.136 -0.001,0.179c0,0.021 0,0.037 0,0.049l0,0.017c0,0 0,0 0,0c0,0 0,0 0,0c0,0 0,0 0.151,0.001c0.15,0.001 0.15,0.001 0.15,0.001l0,-0.018c0,-0.011 0,-0.027 0,-0.049c0.001,-0.042 0.001,-0.104 0.001,-0.179c0.001,-0.15 0.002,-0.354 0.003,-0.573c0.002,-0.437 0.005,-0.931 0.005,-1.155l-0.301,0Z" style="fill:#fff;fill-rule:nonzero;"/></g></g></g></g></svg>