<?xml version="1.0" encoding="utf-8"?>
<svg version="1.1" id="Layer_1" xmlns="http://www.w3.org/2000/svg" xmlns:xlink="http://www.w3.org/1999/xlink" x="0px" y="0px"
	 viewBox="0 0 172.7 46.3" style="enable-background:new 0 0 172.7 46.3;" xml:space="preserve">
<style type="text/css">
	.st0{fill:#5B41E1;}
</style>
<g>
	<path class="st0" d="M58.8,22.2v11.4c0,1,0.7,1.4,1.6,1.4c0.9,0,1.6-0.5,1.6-1.4V21.6c0-4.4-2.3-6.9-6.5-6.9
		c-3.4,0-6.6,1.9-6.6,3.5c0-0.7,0-0.4,0-0.8v-1c0-0.9-0.6-1.4-1.6-1.4c-1,0-1.7,0.5-1.7,1.4v17.3c0,1,0.6,1.4,1.6,1.4
		c0.9,0,1.6-0.5,1.6-1.4v-10c0-1.4,0.4-2.4,1.2-3.6c1.2-1.7,2.8-2.5,4.7-2.5C57.5,17.5,58.8,19.2,58.8,22.2z"/>
	<path class="st0" d="M79.7,31.7c0,0.6,0,0.7,0,1.1v1c0,0.9,0.7,1.3,1.6,1.3c0.9,0,1.6-0.5,1.6-1.4V16.3c0-1-0.7-1.4-1.6-1.4
		c-1,0-1.6,0.5-1.6,1.4v9.9c0,1.4-0.4,2.5-1.2,3.7c-1.2,1.7-2.7,2.6-4.6,2.6c-2.6,0-3.9-1.7-3.9-4.8V16.3c0-1-0.7-1.4-1.6-1.4
		c-1,0-1.6,0.5-1.6,1.4v12.1c0,4.3,2.3,7,6.5,7C76.7,35.4,79.7,33,79.7,31.7z"/>
	<path class="st0" d="M88,17.9h2.8v12.2c0,3.7,2.1,5.2,5.1,5.2c1.2,0,2.4-0.2,3.5-0.8c0.5-0.2,0.8-0.7,0.7-1.3c0-0.3,0-0.5-0.1-0.8
		c-0.2-0.5-0.6-0.9-1.2-0.9c-0.2,0-0.4,0.1-0.6,0.2c-0.6,0.4-1.4,0.6-2.1,0.6c-1.3,0-2.1-0.7-2.1-2.5V17.9h4.5
		c0.9,0,1.3-0.6,1.3-1.4c0-0.9-0.4-1.4-1.3-1.4H94v-4.3c0-0.9-0.7-1.4-1.6-1.4c-1,0-1.6,0.5-1.6,1.4v4.3h-2.7
		c-0.9,0-1.3,0.6-1.3,1.4C86.8,17.4,87.2,17.9,88,17.9z"/>
	<path class="st0" d="M114.8,18.2c0.7,0,1.2-0.6,1.4-1.4c0-0.2,0.1-0.4,0.1-0.6c0-0.7-0.3-1.2-1.1-1.3c-0.5-0.1-0.9-0.2-1.4-0.2
		c-0.2,0-0.5,0-0.8,0c-2.4,0-5.2,2.2-5.3,3.6c0-0.6,0-0.7,0-1.2v-0.8c0-0.9-0.7-1.4-1.6-1.4c-1,0-1.7,0.5-1.7,1.4v17.3
		c0,1,0.7,1.4,1.7,1.4c0.9,0,1.6-0.5,1.6-1.4v-9.8c0-1.4,0.6-2.8,1.5-3.9c0.9-1.1,2.1-1.9,3.6-2c0.6,0,1.1,0.1,1.7,0.2
		C114.6,18.2,114.7,18.2,114.8,18.2z"/>
	<path class="st0" d="M142.3,16.6c0-0.9-0.4-1.5-1.3-1.5h-4.3V13c0-2.6,1-3.3,2.3-3.3c0.7,0,1.3,0,1.9,0.2c0.3,0.1,0.6,0.2,0.9,0.2
		c0.6,0,0.9-0.4,1.1-1.1c0.1-0.3,0.1-0.6,0.1-0.8c0-0.5-0.2-0.8-0.9-1c-1-0.3-2-0.5-3.1-0.5c-2.7,0-5.5,1.2-5.5,5.8v2.6h-3
		c-0.9,0-1.3,0.6-1.3,1.5c0,0.8,0.4,1.4,1.3,1.4h3v15.7c0,1,0.6,1.4,1.6,1.4c0.9,0,1.6-0.5,1.6-1.4V17.9h4.3
		C141.9,17.9,142.3,17.4,142.3,16.6z"/>
	<path class="st0" d="M172,32.5l-5.8-7.9l5.4-7.3c0.2-0.2,0.3-0.5,0.3-0.9c0-0.5-0.3-1-0.7-1.3c-0.3-0.2-0.6-0.3-1-0.3
		c-0.5,0-0.9,0.2-1.2,0.6l-4.8,6.9l-5-6.9c-0.3-0.4-0.7-0.6-1.2-0.6c-0.4,0-0.7,0.1-1,0.3c-0.5,0.3-0.7,0.8-0.7,1.3
		c0,0.3,0.1,0.6,0.3,0.9l5.7,7.3l-5.9,8c-0.2,0.2-0.3,0.5-0.3,0.9c0,0.5,0.3,0.9,0.6,1.2c0.3,0.2,0.7,0.3,1.1,0.4
		c0.5,0,0.9-0.2,1.1-0.6l5.3-7.5l5.3,7.5c0.2,0.4,0.7,0.6,1.1,0.6c0.4,0,0.7-0.1,1-0.4c0.4-0.3,0.7-0.7,0.7-1.2
		C172.3,33.1,172.2,32.8,172,32.5z"/>
	<path class="st0" d="M2.2,16.8c0.1,0,0.2,0,0.4,0c1.1,0,2-0.7,2.2-1.8c0.7-3.7,3.2-6.9,6.7-8.7c0.5-0.3,0.9-0.7,1.1-1.3
		c0.2-0.5,0.1-1.1-0.2-1.6c-0.4-0.7-1.1-1.1-2-1.1c-0.3,0-0.7,0.1-1,0.2C4.7,4.9,1.3,9.3,0.4,14.3c-0.1,0.6,0,1.1,0.4,1.6
		C1.1,16.3,1.6,16.7,2.2,16.8z"/>
	<path class="st0" d="M18.5,5C24.7,5,30,9.2,31,15c0.2,1,1.1,1.8,2.2,1.8c0.1,0,0.3,0,0.4,0c0.6-0.1,1.1-0.4,1.5-0.9
		c0.3-0.5,0.5-1,0.4-1.6C34,6.4,26.9,0.7,18.5,0.7c-1.2,0-2.1,1-2.1,2.1C16.3,4,17.3,5,18.5,5C18.5,5,18.5,5,18.5,5z"/>
	<path class="st0" d="M149.2,14.9c-1,0-1.6,0.5-1.6,1.4v17.3c0,1,0.6,1.4,1.6,1.4c1,0,1.6-0.5,1.6-1.4V16.3
		C150.8,15.4,150.1,14.9,149.2,14.9z"/>
	<path class="st0" d="M149.2,10.8c1.1,0,2-0.9,2-2s-0.9-2-2-2c-1.1,0-2,0.9-2,2C147.2,9.9,148.1,10.8,149.2,10.8
		C149.2,10.8,149.2,10.8,149.2,10.8z"/>
	<path class="st0" d="M124.4,33.6V16.3c0-0.9-0.7-1.4-1.6-1.4c-1,0-1.6,0.5-1.6,1.4v17.3c0,1,0.6,1.4,1.6,1.4
		C123.7,35.1,124.4,34.6,124.4,33.6z"/>
	<path class="st0" d="M122.8,10.8c1.1,0,2-0.9,2-2c0-1.1-0.9-2-2-2c-1.1,0-2,0.9-2,2C120.8,9.9,121.6,10.8,122.8,10.8
		C122.8,10.8,122.8,10.8,122.8,10.8z"/>
	<path class="st0" d="M33.3,20.2c-1,0-1.9,0.7-2.2,1.7c-0.3,1.2-0.7,2.4-1.3,3.5c-1.6,2.7-5.9,8-10.1,13.1c-0.8,1-2.3,1.1-3.2,0.2
		c-0.1-0.1-0.2-0.2-0.2-0.2c-4.3-5-8.6-10.4-10.1-13.1c-0.6-1.1-1.1-2.2-1.3-3.5C4.4,20.7,3.2,20,2,20.3c-1.1,0.3-1.8,1.4-1.6,2.5
		c0.4,1.6,1,3.2,1.8,4.6c2.6,4.5,11,14.2,13.5,17.1c1.1,1.2,3,1.4,4.2,0.3c0.1-0.1,0.2-0.2,0.3-0.3c2.5-2.9,10.9-12.6,13.5-17.1
		c0.8-1.4,1.4-3,1.8-4.6c0.3-1.2-0.5-2.3-1.7-2.6C33.6,20.2,33.5,20.2,33.3,20.2z"/>
</g>
</svg>
