<svg xmlns="http://www.w3.org/2000/svg" viewBox="5382 613 25.562 20.803"><g transform="translate(5382 612.961)"><g transform="translate(8.974 4.393)"><path d="M29.87,28.075a.746.746,0,0,1-.441-.136.836.836,0,0,1-.305-1.153,4.759,4.759,0,0,0-.712-5.662c-1.39-1.119-2.034-2.305-1.932-3.492.17-2.034,2.407-3.424,4.645-4.645a.85.85,0,1,1,.814,1.492c-1.288.712-3.661,2-3.763,3.322q-.1.915,1.322,2.034A6.439,6.439,0,0,1,30.616,27.7.9.9,0,0,1,29.87,28.075Z" transform="translate(-26.469 -12.88)"/></g><g transform="translate(13.207 4.38)"><path d="M42.361,19.1a2.725,2.725,0,0,1-1.7-.542C38.462,17,39,13.676,39.038,13.54a.845.845,0,1,1,1.661.305c0,.034-.373,2.407.949,3.356.983.678,2.644-.509,2.644-.542a.848.848,0,0,1,1.017,1.356A5.781,5.781,0,0,1,42.361,19.1Z" transform="translate(-38.955 -12.842)"/></g><g transform="translate(13.764 0.128)"><circle cx="2.034" cy="2.034" r="2.034"/></g><g transform="translate(14.985 10.264)"><path d="M49.489,40.778a5.289,5.289,0,1,1,5.289-5.289A5.3,5.3,0,0,1,49.489,40.778Zm0-8.849a3.577,3.577,0,1,0,3.594,3.56A3.6,3.6,0,0,0,49.489,31.929Z" transform="translate(-44.2 -30.2)"/></g><g transform="translate(0 10.298)"><path d="M5.289,40.844a5.272,5.272,0,1,1,5.289-5.255A5.267,5.267,0,0,1,5.289,40.844Zm0-8.849a3.594,3.594,0,1,0,3.594,3.594A3.574,3.574,0,0,0,5.289,32Z" transform="translate(0 -30.3)"/></g><g transform="translate(5.404 0.039)"><path d="M17.587,6.5,16.163,4.569A1.178,1.178,0,0,1,16.4,2.941L20.028.263A1.178,1.178,0,0,1,21.655.5l1.424,1.932a1.178,1.178,0,0,1-.237,1.627L19.214,6.739A1.173,1.173,0,0,1,17.587,6.5Z" transform="translate(-15.939 -0.039)"/></g></g></svg>