<svg xmlns="http://www.w3.org/2000/svg" width="30" height="30" viewBox="-529 1861 30 30">
  <defs>
    <style>
      .cls-1 {
        fill: none;
      }

      .cls-2 {
        fill: #5152df;
      }
    </style>
  </defs>
  <g id="nf-delivery" transform="translate(-849 1852)">
    <rect id="Rectangle_768" data-name="Rectangle 768" class="cls-1" width="30" height="30" transform="translate(320 9)"/>
    <g id="Group_1190" data-name="Group 1190" transform="translate(321 13)">
      <path id="Path_1591" data-name="Path 1591" class="cls-2" d="M38.087,19.224a.925.925,0,0,0-1.11-1.48s-1.85,1.332-2.886.592c-1.443-1.036-1.036-3.626-1.036-3.663a.931.931,0,0,0-.74-1.073h-.222a.985.985,0,0,0-.444.111c-2.442,1.332-4.884,2.849-5.069,5.069-.111,1.295.592,2.59,2.109,3.811a5.194,5.194,0,0,1,.777,6.179.913.913,0,0,0,.333,1.258,1.049,1.049,0,0,0,.481.148.831.831,0,0,0,.777-.444,6.987,6.987,0,0,0-1.221-8.584q-1.5-1.221-1.443-2.22c.074-1.036,1.48-2.072,2.775-2.849a4.768,4.768,0,0,0,1.85,3.737,3.224,3.224,0,0,0,1.85.592A5.974,5.974,0,0,0,38.087,19.224Z" transform="translate(-16.739 -8.841)"/>
      <circle id="Ellipse_274" data-name="Ellipse 274" class="cls-2" cx="2.22" cy="2.22" r="2.22" transform="translate(15.022 0.097)"/>
      <path id="Path_1592" data-name="Path 1592" class="cls-2" d="M49.972,31a5.772,5.772,0,1,0,5.772,5.772A5.779,5.779,0,0,0,49.972,31Zm0,9.694a3.922,3.922,0,1,1,3.922-3.922A3.924,3.924,0,0,1,49.972,40.694Z" transform="translate(-27.846 -19.804)"/>
      <path id="Path_1593" data-name="Path 1593" class="cls-2" d="M5.772,31a5.772,5.772,0,1,0,5.772,5.772A5.779,5.779,0,0,0,5.772,31Zm0,9.694a3.922,3.922,0,1,1,3.922-3.922A3.924,3.924,0,0,1,5.772,40.694Z" transform="translate(0 -19.804)"/>
      <path id="Path_1594" data-name="Path 1594" class="cls-2" d="M17.738,7.791a1.286,1.286,0,0,0,1.776.259l3.959-2.923a1.286,1.286,0,0,0,.259-1.776L22.177,1.243A1.286,1.286,0,0,0,20.4.984L16.443,3.907a1.286,1.286,0,0,0-.259,1.776Z" transform="translate(-10.042 -0.739)"/>
    </g>
  </g>
</svg>
