<svg xmlns="http://www.w3.org/2000/svg" width="30" height="30" viewBox="-813 1766 30 30">
  <defs>
    <style>
      .cls-1 {
        fill: none;
      }
    </style>
  </defs>
  <g id="nf-home-outline" transform="translate(-849 1758)">
    <path id="Path_1595" data-name="Path 1595" d="M122.539,8.7l-10.8-7.511A.871.871,0,0,0,111.255,1a1.012,1.012,0,0,0-.518.148L99.97,8.7a.894.894,0,0,0-.37.7V23.236a.9.9,0,0,0,.888.888h21.57a.9.9,0,0,0,.888-.888V9.4A1.06,1.06,0,0,0,122.539,8.7Zm-1.48,13.579h-6.29v-9.99h-7.03v9.99h-6.29V9.917l9.8-6.845,9.8,6.845Z" transform="translate(-60.6 10)"/>
    <rect id="Rectangle_763" data-name="Rectangle 763" class="cls-1" width="30" height="30" transform="translate(36 8)"/>
  </g>
</svg>
