<svg id="Group_3368" data-name="Group 3368" xmlns="http://www.w3.org/2000/svg" viewBox="2165 1358 26 26">
  <defs>
    <style>
      .cls-1 {
        fill: #fff;
      }

      .cls-2 {
        fill: none;
      }
    </style>
  </defs>
  <g id="Group_3367" data-name="Group 3367" transform="translate(2173 1364)">
    <g id="Group_1191" data-name="Group 1191" transform="translate(0 0)">
      <path id="Path_1596" data-name="Path 1596" class="cls-1" d="M190.469,0h-.487A5.147,5.147,0,0,0,185.1,4.988a5.031,5.031,0,0,0,.635,2.568,58.412,58.412,0,0,0,4.338,5.64.262.262,0,0,0,.169.084.193.193,0,0,0,.169-.084,55.916,55.916,0,0,0,4.338-5.64,5.03,5.03,0,0,0,.635-2.568A5.182,5.182,0,0,0,190.469,0Zm3.343,7.03a45.593,45.593,0,0,1-3.576,4.714,43.422,43.422,0,0,1-3.576-4.714,3.943,3.943,0,0,1-.487-2.042,4.068,4.068,0,0,1,3.851-3.957h.423A4.068,4.068,0,0,1,194.3,4.988,3.893,3.893,0,0,1,193.813,7.03Z" transform="translate(-185.094 0)"/>
      <path id="Path_1820" data-name="Path 1820" class="cls-1" d="M1.058,0A1.052,1.052,0,1,1,0,1.052,1.055,1.055,0,0,1,1.058,0Z" transform="translate(4.127 3.683)"/>
    </g>
  </g>
  <rect id="Rectangle_780" data-name="Rectangle 780" class="cls-2" width="26" height="26" transform="translate(2165 1358)"/>
</svg>
