<?xml version="1.0" encoding="utf-8"?>
<svg version="1.1" id="Group_3371" xmlns="http://www.w3.org/2000/svg" xmlns:xlink="http://www.w3.org/1999/xlink" x="0px" y="0px"
	 width="18" height="18" viewBox="0 0 18 18" style="enable-background:new 0 0 18 18;" xml:space="preserve">
<style type="text/css">
	.st0{fill:#929497;}
	.st1{fill:none;}
</style>
<path class="st0" d="M15.6,14.7l-3-3.4c0.8-1,1.3-2.2,1.3-3.6c0-3.2-2.6-5.7-5.8-5.7C5,2,2.4,4.5,2.4,7.7c0,3.2,2.6,5.7,5.8,5.7
	c1.1,0,2.1-0.3,3-0.8l3,3.4L15.6,14.7z M4.4,7.7C4.4,5.6,6.1,4,8.1,4s3.8,1.7,3.8,3.7s-1.7,3.7-3.8,3.7S4.4,9.7,4.4,7.7z"/>
<rect id="Rectangle_781" class="st1" width="18" height="18"/>
</svg>
