<svg xmlns="http://www.w3.org/2000/svg" width="16" height="16" viewBox="400 741 16 16">
  <defs>
    <style>
      .cls-1 {
        fill: none;
      }

      .cls-2 {
        fill: #5152df;
      }
    </style>
  </defs>
  <g id="Group_3359" data-name="Group 3359" transform="translate(73 227)">
    <rect id="Rectangle_771" data-name="Rectangle 771" class="cls-1" width="16" height="16" transform="translate(327 514)"/>
    <path id="Path_2133" data-name="Path 2133" class="cls-2" d="M7.713,4.8a4.03,4.03,0,0,0-.261-.987c-.032-.08-.067-.156-.1-.232-.019-.038-.038-.076-.057-.111l-.06-.111A2.17,2.17,0,0,0,7.1,3.141l-.07-.105a.748.748,0,0,0-.073-.1,3.911,3.911,0,0,0-.681-.713,3.982,3.982,0,0,0-.653-.43.12.12,0,0,1-.054-.159l.6-1.394A.17.17,0,0,0,5.968.008l-3.2,1.041a.169.169,0,0,0-.1.245L4.243,4.013A.17.17,0,0,0,4.546,4l.6-1.385a.116.116,0,0,1,.194-.032l.3.328a2.9,2.9,0,0,1,.42.6A.669.669,0,0,1,6.1,3.6l.038.083a1.55,1.55,0,0,1,.067.169l.032.083a.878.878,0,0,1,.025.086c.016.057.032.115.045.172a2.73,2.73,0,0,1,.07.7,2.817,2.817,0,0,1-.105.678,2.633,2.633,0,0,1-.264.614,2.546,2.546,0,0,1-.4.516,2.675,2.675,0,0,1-.5.392,2.387,2.387,0,0,1-1.165.334,2.558,2.558,0,0,1-.586-.057,2.311,2.311,0,0,1-.532-.2,2.173,2.173,0,0,1-.774-.684.047.047,0,0,0-.067-.01L.016,8.145a.046.046,0,0,0,0,.067,4.716,4.716,0,0,0,1.945,1.2,4.533,4.533,0,0,0,2.266.131,4.393,4.393,0,0,0,1.063-.353c.041-.019.083-.041.124-.064l.124-.064.121-.07.06-.035.057-.038.115-.076L6,8.765c.076-.054.146-.111.216-.169a4.367,4.367,0,0,0,.738-.8,4.28,4.28,0,0,0,.509-.942,4.109,4.109,0,0,0,.255-1.022A4.189,4.189,0,0,0,7.713,4.8Z" transform="translate(329 524.41) rotate(-73)"/>
  </g>
</svg>
