<svg id="Group_3760" data-name="Group 3760" xmlns="http://www.w3.org/2000/svg" width="30" height="30" viewBox="16169 7372 30 30">
  <defs>
    <style>
      .cls-1 {
        fill: none;
      }

      .cls-2 {
        fill: #0a0a0a;
      }

      .cls-3 {
        fill: #231f20;
      }
    </style>
  </defs>
  <rect id="Rectangle_929" data-name="Rectangle 929" class="cls-1" width="30" height="30" transform="translate(16169 7372)"/>
  <g id="Group_847" data-name="Group 847" transform="translate(16175 7375)">
    <path id="Union_2" data-name="Union 2" class="cls-2" d="M11.605,19.147a.947.947,0,0,1-.37-1.279,4.921,4.921,0,0,0,.408-4.589,6.343,6.343,0,0,0-1.594-1.8c-.207-.184-.442-.385-.722-.634a7.135,7.135,0,0,1-2.957,3.3,5.817,5.817,0,0,1-2.489.527,9.113,9.113,0,0,1-3.342-.716.923.923,0,0,1-.447-1.239.9.9,0,0,1,1.227-.452c.036,0,2.492,1.09,4.2.188A5.515,5.515,0,0,0,7.892,9.407c.007-.015.011-.032.018-.048a6.581,6.581,0,0,1-.595-6.74A7.711,7.711,0,0,0,5.443,3.655,5.035,5.035,0,0,0,3.773,7.415a.977.977,0,0,1-.93.941.967.967,0,0,1-.927-.9,6.739,6.739,0,0,1,2.412-5.3A12.9,12.9,0,0,1,9.869.036a.858.858,0,0,1,.416-.019.956.956,0,0,1,.8.93c0,.941.224,3.8,1.411,4.476,1.04.562,2.6-1.279,2.933-1.807a.934.934,0,0,1,1.3-.224.961.961,0,0,1,.225,1.315c-.746,1.092-2.3,2.709-4.013,2.709a2.808,2.808,0,0,1-1.3-.338c-1.482-.809-2.053-2.752-2.273-4.245a4.219,4.219,0,0,0-.808,2.1A4.71,4.71,0,0,0,10.05,8.957c.517.489.925.826,1.263,1.127a8.326,8.326,0,0,1,1.966,2.22c.853,1.352,1.038,3.872-.333,6.466a1.15,1.15,0,0,1-.893.489A1,1,0,0,1,11.605,19.147Z" transform="translate(0 4.73)"/>
    <g id="Group_846" data-name="Group 846" transform="translate(9.196)">
      <ellipse id="Ellipse_178" data-name="Ellipse 178" class="cls-3" cx="2.228" cy="2.256" rx="2.228" ry="2.256"/>
    </g>
  </g>
</svg>
