<svg xmlns="http://www.w3.org/2000/svg" width="30" height="30" viewBox="-721 1861 30 30">
  <defs>
    <style>
      .cls-1 {
        fill: none;
      }

      .cls-2 {
        fill: #5152df;
      }
    </style>
  </defs>
  <g id="nf-meals" transform="translate(-849 1852)">
    <rect id="Rectangle_769" data-name="Rectangle 769" class="cls-1" width="30" height="30" transform="translate(128 9)"/>
    <g id="Group_1189" data-name="Group 1189" transform="translate(134 12)">
      <path id="Path_1589" data-name="Path 1589" class="cls-2" d="M267.858.537a.9.9,0,0,0-.888.888V8.862a1.771,1.771,0,0,1-1.7,1.813h-.37V1.425a.925.925,0,1,0-1.85,0v9.287h-.37a1.771,1.771,0,0,1-1.7-1.813V1.425a.888.888,0,1,0-1.776,0V8.862a3.562,3.562,0,0,0,3.515,3.626h.37v10.4a.925.925,0,0,0,1.85,0V12.525h.37A3.586,3.586,0,0,0,268.82,8.9V1.425A1.025,1.025,0,0,0,267.858.537Z" transform="translate(-259.2 -0.5)"/>
      <path id="Path_1590" data-name="Path 1590" class="cls-2" d="M293.695.649a.9.9,0,0,0-.962.111A12.007,12.007,0,0,0,288.7,9.64c0,2.627,1,6.4,3.7,7.1v6.179a.925.925,0,1,0,1.85,0V1.463A1.017,1.017,0,0,0,293.695.649Z" transform="translate(-275.785 -0.538)"/>
    </g>
  </g>
</svg>
