<svg xmlns="http://www.w3.org/2000/svg" width="30" height="30" viewBox="-1121 249 30 30">
  <defs>
    <style>
      .cls-1 {
        fill: #5152df;
      }

      .cls-2 {
        fill: none;
      }
    </style>
  </defs>
  <g id="nutrifix-logo-icon" transform="translate(-1294 239)">
    <g id="Group_3344" data-name="Group 3344" transform="translate(176.621 10)">
      <g id="Group_1690" data-name="Group 1690" transform="translate(0.02)">
        <g id="Group_1685" data-name="Group 1685" transform="translate(0.185 1.549)">
          <g id="Group_1684" data-name="Group 1684">
            <path id="Path_1849" data-name="Path 1849" class="cls-1" d="M8.093,8.372h0a1.418,1.418,0,0,0-2.112-.8,12,12,0,0,0-5,6.662,1.481,1.481,0,0,0,1.394,1.9h0a1.452,1.452,0,0,0,1.374-1.075,8.934,8.934,0,0,1,3.752-5A1.491,1.491,0,0,0,8.093,8.372Z" transform="translate(-0.921 -7.35)"/>
          </g>
        </g>
        <g id="Group_1687" data-name="Group 1687" transform="translate(9.383)">
          <g id="Group_1686" data-name="Group 1686">
            <path id="Path_1850" data-name="Path 1850" class="cls-1" d="M47.259,2.952h.882a8.759,8.759,0,0,1,7.894,6.409,1.3,1.3,0,0,0,1.23.97h.349a1.3,1.3,0,0,0,1.23-1.644A11.665,11.665,0,0,0,48.243,0H46.972a1.3,1.3,0,0,0-1.128,1.708l.1.337a1.315,1.315,0,0,0,1.312.907Z" transform="translate(-45.778)"/>
          </g>
        </g>
        <g id="Group_1689" data-name="Group 1689" transform="translate(0 12.649)">
          <g id="Group_1688" data-name="Group 1688">
            <path id="Path_1851" data-name="Path 1851" class="cls-1" d="M18.942,63.5a82.131,82.131,0,0,1-6.5,8.939,1.409,1.409,0,0,1-2.215,0A85.889,85.889,0,0,1,3.707,63.5a8.146,8.146,0,0,1-.861-2.361A1.417,1.417,0,0,0,1.452,60h0A1.468,1.468,0,0,0,.057,61.813a11.742,11.742,0,0,0,1.169,3.141c1.661,3.036,7.054,9.719,8.653,11.7a1.86,1.86,0,0,0,1.435.7,1.83,1.83,0,0,0,1.435-.7c1.62-1.982,7.013-8.644,8.674-11.7a12.016,12.016,0,0,0,1.169-3.141A1.468,1.468,0,0,0,21.2,60h0A1.417,1.417,0,0,0,19.8,61.138,7.928,7.928,0,0,1,18.942,63.5Z" transform="translate(-0.02 -60)"/>
          </g>
        </g>
      </g>
    </g>
    <rect id="Rectangle_763" data-name="Rectangle 763" class="cls-2" width="30" height="30" transform="translate(173 10)"/>
  </g>
</svg>
